<?xml version="1.0" encoding="UTF-8"?>
<!DOCTYPE svg PUBLIC "-//W3C//DTD SVG 1.1//EN" "http://www.w3.org/Graphics/SVG/1.1/DTD/svg11.dtd">
<svg xmlns="http://www.w3.org/2000/svg" version="1.1" width="1024px" height="1024px" style="shape-rendering:geometricPrecision; text-rendering:geometricPrecision; image-rendering:optimizeQuality; fill-rule:evenodd; clip-rule:evenodd" xmlns:xlink="http://www.w3.org/1999/xlink">
<g><path style="opacity:0.004" fill="#135282" d="M 464.5,191.5 C 465.833,192.167 465.833,192.167 464.5,191.5 Z"/></g>
<g><path style="opacity:0.004" fill="#135382" d="M 472.5,192.5 C 472.897,191.475 473.563,191.308 474.5,192C 473.906,192.464 473.239,192.631 472.5,192.5 Z"/></g>
<g><path style="opacity:0.004" fill="#0e4d7e" d="M 476.5,191.5 C 477.833,192.167 477.833,192.167 476.5,191.5 Z"/></g>
<g><path style="opacity:0.008" fill="#1a5581" d="M 533.5,192.5 C 533.897,191.475 534.563,191.308 535.5,192C 534.906,192.464 534.239,192.631 533.5,192.5 Z"/></g>
<g><path style="opacity:0.494" fill="#326e9a" d="M 529.5,193.5 C 528.167,193.5 526.833,193.5 525.5,193.5C 506.487,193.326 487.487,193.66 468.5,194.5C 480.622,192.756 492.955,191.756 505.5,191.5C 512.948,192.122 519.781,192.122 526,191.5C 527.302,192.085 528.469,192.751 529.5,193.5 Z"/></g>
<g><path style="opacity:0.004" fill="#19547f" d="M 539.5,192.5 C 540.833,193.167 540.833,193.167 539.5,192.5 Z"/></g>
<g><path style="opacity:0.012" fill="#1a537e" d="M 542.5,193.5 C 542.897,192.475 543.563,192.308 544.5,193C 543.906,193.464 543.239,193.631 542.5,193.5 Z"/></g>
<g><path style="opacity:0.008" fill="#1d5780" d="M 548.5,194.5 C 548.897,193.475 549.563,193.308 550.5,194C 549.906,194.464 549.239,194.631 548.5,194.5 Z"/></g>
<g><path style="opacity:0.192" fill="#3778a3" d="M 466.5,194.5 C 462.764,195.989 458.764,196.656 454.5,196.5C 458.267,195.205 462.267,194.539 466.5,194.5 Z"/></g>
<g><path style="opacity:0.988" fill="#063667" d="M 525.5,193.5 C 499.822,193.427 474.156,195.427 448.5,199.5C 447.5,199.333 446.5,199.167 445.5,199C 448.379,198.454 451.046,197.621 453.5,196.5C 453.833,196.5 454.167,196.5 454.5,196.5C 458.764,196.656 462.764,195.989 466.5,194.5C 467.167,194.5 467.833,194.5 468.5,194.5C 487.487,193.66 506.487,193.326 525.5,193.5 Z"/></g>
<g><path style="opacity:0.01" fill="#114f7f" d="M 427.5,200.5 C 427.897,199.475 428.563,199.308 429.5,200C 428.906,200.464 428.239,200.631 427.5,200.5 Z"/></g>
<g><path style="opacity:0.004" fill="#335c78" d="M 576.5,199.5 C 577.833,200.167 577.833,200.167 576.5,199.5 Z"/></g>
<g><path style="opacity:0.004" fill="#2c5876" d="M 576.5,200.5 C 575.833,201.167 575.833,201.167 576.5,200.5 Z"/></g>
<g><path style="opacity:0.004" fill="#125080" d="M 421.5,201.5 C 422.833,202.167 422.833,202.167 421.5,201.5 Z"/></g>
<g><path style="opacity:0.004" fill="#345f79" d="M 579.5,201.5 C 580.833,202.167 580.833,202.167 579.5,201.5 Z"/></g>
<g><path style="opacity:0.008" fill="#135482" d="M 417.5,202.5 C 418.833,203.167 418.833,203.167 417.5,202.5 Z"/></g>
<g><path style="opacity:0.031" fill="#546d79" d="M 596.5,213.5 C 595.609,212.89 594.609,212.557 593.5,212.5C 593.611,211.883 593.944,211.383 594.5,211C 593.429,210.148 592.429,209.315 591.5,208.5C 593.239,207.566 594.905,207.566 596.5,208.5C 596.291,209.086 595.957,209.586 595.5,210C 598.706,210.927 599.039,212.093 596.5,213.5 Z"/></g>
<g><path style="opacity:0.004" fill="#145685" d="M 396.5,209.5 C 397.833,210.167 397.833,210.167 396.5,209.5 Z"/></g>
<g><path style="opacity:0.004" fill="#155384" d="M 391.5,210.5 C 392.833,211.167 392.833,211.167 391.5,210.5 Z"/></g>
<g><path style="opacity:0.004" fill="#5c6e70" d="M 596.5,213.5 C 597.833,214.167 597.833,214.167 596.5,213.5 Z"/></g>
<g><path style="opacity:0.004" fill="#3b637f" d="M 573.5,221.5 C 574.833,222.167 574.833,222.167 573.5,221.5 Z"/></g>
<g><path style="opacity:0.092" fill="#c3955a" d="M 632.5,222.5 C 630.265,222.205 628.265,222.539 626.5,223.5C 625.957,223.44 625.624,223.107 625.5,222.5C 627.973,221.203 630.307,221.203 632.5,222.5 Z"/></g>
<g><path style="opacity:0.008" fill="#0f4f83" d="M 364.5,225.5 C 363.833,224.167 363.833,224.167 364.5,225.5 Z"/></g>
<g><path style="opacity:0.4" fill="#dca55e" d="M 626.5,223.5 C 628.027,223.427 629.027,224.094 629.5,225.5C 627.973,225.573 626.973,224.906 626.5,223.5 Z"/></g>
<g><path style="opacity:0.004" fill="#115384" d="M 361.5,225.5 C 362.833,226.167 362.833,226.167 361.5,225.5 Z"/></g>
<g><path style="opacity:0.016" fill="#d3913e" d="M 646.5,225.5 C 647.833,226.167 647.833,226.167 646.5,225.5 Z"/></g>
<g><path style="opacity:0.008" fill="#2b5c82" d="M 550.5,230.5 C 551.833,231.167 551.833,231.167 550.5,230.5 Z"/></g>
<g><path style="opacity:0.008" fill="#ce923d" d="M 634.5,230.5 C 633.833,231.167 633.833,231.167 634.5,230.5 Z"/></g>
<g><path style="opacity:0.004" fill="#115285" d="M 346.5,231.5 C 347.833,232.167 347.833,232.167 346.5,231.5 Z"/></g>
<g><path style="opacity:0.004" fill="#d89433" d="M 658.5,231.5 C 659.833,232.167 659.833,232.167 658.5,231.5 Z"/></g>
<g><path style="opacity:0.004" fill="#245d86" d="M 534.5,236.5 C 535.833,237.167 535.833,237.167 534.5,236.5 Z"/></g>
<g><path style="opacity:0.008" fill="#db9638" d="M 639.5,236.5 C 640.833,237.167 640.833,237.167 639.5,236.5 Z"/></g>
<g><path style="opacity:0.004" fill="#de9838" d="M 641.5,237.5 C 642.833,238.167 642.833,238.167 641.5,237.5 Z"/></g>
<g><path style="opacity:0.999" fill="#f59b2d" d="M 626.5,223.5 C 628.265,222.539 630.265,222.205 632.5,222.5C 641.418,225.297 650.085,228.63 658.5,232.5C 663.299,235.737 668.299,238.737 673.5,241.5C 680.796,246.487 688.13,251.487 695.5,256.5C 701.808,261.804 708.142,267.137 714.5,272.5C 715.5,274.167 716.833,275.5 718.5,276.5C 719.5,278.167 720.833,279.5 722.5,280.5C 724.833,283.5 727.5,286.167 730.5,288.5C 740.565,299.658 749.898,311.325 758.5,323.5C 760.808,327.795 763.474,331.795 766.5,335.5C 775.301,350.768 783.301,366.435 790.5,382.5C 793.026,390.91 795.859,399.243 799,407.5C 801.318,418.611 804.151,429.444 807.5,440C 807.019,443.746 807.019,447.913 807.5,452.5C 806.629,448.979 805.795,445.312 805,441.5C 806.115,458.796 807.115,476.129 808,493.5C 808.5,483.506 808.666,473.506 808.5,463.5C 809.235,472.18 809.901,481.013 810.5,490C 810.139,497.84 809.472,506.007 808.5,514.5C 808.666,507.825 808.5,501.158 808,494.5C 807.268,509.092 805.768,523.592 803.5,538C 803.667,539.5 803.833,541 804,542.5C 804.21,540.942 804.71,539.609 805.5,538.5C 804.836,546.825 803.169,554.825 800.5,562.5C 799.232,564.905 798.565,567.572 798.5,570.5C 796.142,579.934 793.475,589.267 790.5,598.5C 780.1,624.602 766.434,649.269 749.5,672.5C 746.936,675.28 744.603,678.28 742.5,681.5C 739.46,684.539 736.794,687.873 734.5,691.5C 730.334,694.321 727.334,697.988 725.5,702.5C 724.448,702.351 723.448,702.517 722.5,703C 711.287,714.049 699.62,724.549 687.5,734.5C 683.264,736.445 679.597,739.112 676.5,742.5C 674.147,743.34 672.147,744.674 670.5,746.5C 653.898,755.968 636.898,764.634 619.5,772.5C 609.748,775.861 600.081,779.194 590.5,782.5C 576.051,786.323 561.384,788.99 546.5,790.5C 547.609,789.71 548.942,789.21 550.5,789C 534.873,789.918 519.206,790.585 503.5,791C 514.495,791.5 525.495,791.667 536.5,791.5C 524.34,792.66 512.007,792.827 499.5,792C 498.376,791.751 497.376,791.251 496.5,790.5C 499.897,788.474 503.23,786.474 506.5,784.5C 512.804,782.344 518.804,779.678 524.5,776.5C 554.899,762.419 580.565,742.419 601.5,716.5C 609.006,708.161 615.006,698.828 619.5,688.5C 621.136,687.251 622.303,685.584 623,683.5C 624.467,680.242 625.633,676.908 626.5,673.5C 629.375,667.788 631.375,661.788 632.5,655.5C 633.847,651.578 634.514,647.411 634.5,643C 634.672,639.523 634.006,636.356 632.5,633.5C 630.186,623.895 625.186,616.229 617.5,610.5C 617.5,609.833 617.167,609.5 616.5,609.5C 609.634,603.4 601.634,599.4 592.5,597.5C 590.221,596.349 587.888,595.349 585.5,594.5C 580.084,592.883 574.417,592.216 568.5,592.5C 555.369,592.663 542.369,593.996 529.5,596.5C 526.848,596.41 524.515,597.076 522.5,598.5C 493.05,607.638 467.716,623.305 446.5,645.5C 443.097,647.9 440.43,650.9 438.5,654.5C 434.224,657.721 430.891,661.721 428.5,666.5C 418.851,678.789 411.518,692.456 406.5,707.5C 405.596,708.209 405.263,709.209 405.5,710.5C 402.097,718.433 399.764,726.766 398.5,735.5C 397.833,735.5 397.167,735.5 396.5,735.5C 396.068,734.29 395.401,733.29 394.5,732.5C 394.598,730.447 393.931,728.78 392.5,727.5C 391.371,722.112 390.037,716.779 388.5,711.5C 389.649,711.209 390.316,710.376 390.5,709C 387.865,692.503 387.865,676.003 390.5,659.5C 390.333,658.833 390.167,658.167 390,657.5C 389.218,660.31 388.384,662.977 387.5,665.5C 389.786,650.143 394.953,635.81 403,622.5C 407.665,615.675 412.498,609.009 417.5,602.5C 423.806,595.86 430.139,589.193 436.5,582.5C 439.089,581.581 441.089,579.914 442.5,577.5C 450.383,572.065 458.05,566.399 465.5,560.5C 483.629,549.437 502.295,539.437 521.5,530.5C 523.553,530.598 525.22,529.931 526.5,528.5C 530.797,527.345 534.797,525.679 538.5,523.5C 541.443,523.02 544.11,522.02 546.5,520.5C 553.46,518.346 560.126,515.679 566.5,512.5C 570.739,511.204 574.739,509.538 578.5,507.5C 581.018,506.736 583.351,505.736 585.5,504.5C 590.963,502.268 596.296,499.768 601.5,497C 600.833,496.667 600.167,496.333 599.5,496C 602.54,496.453 605.54,495.786 608.5,494C 610.67,492.414 613.004,491.08 615.5,490C 616.833,489.333 616.833,488.667 615.5,488C 621.134,487.184 626.134,484.684 630.5,480.5C 634.439,478.554 638.106,476.221 641.5,473.5C 645.736,471.555 649.403,468.888 652.5,465.5C 664.527,456.806 674.861,446.473 683.5,434.5C 692.356,423.615 699.356,411.615 704.5,398.5C 706.472,395.916 707.472,392.916 707.5,389.5C 711.099,374.366 712.266,359.033 711,343.5C 710.06,334.405 707.893,325.738 704.5,317.5C 701.684,308.57 698.018,300.57 693.5,293.5C 693.068,292.29 692.401,291.29 691.5,290.5C 691.573,288.973 690.906,287.973 689.5,287.5C 685.934,280.936 681.601,274.936 676.5,269.5C 674.528,265.895 671.861,262.895 668.5,260.5C 667.5,258.833 666.167,257.5 664.5,256.5C 664.167,255.5 663.5,254.833 662.5,254.5C 660.1,251.097 657.1,248.43 653.5,246.5C 652.833,245.167 651.833,244.167 650.5,243.5C 645.771,238.439 640.438,234.106 634.5,230.5C 632.64,229.061 630.973,227.395 629.5,225.5C 629.027,224.094 628.027,223.427 626.5,223.5 Z"/></g>
<g><path style="opacity:0.004" fill="#114f83" d="M 339.5,240.5 C 338.833,239.167 338.833,239.167 339.5,240.5 Z"/></g>
<g><path style="opacity:0.016" fill="#e0942f" d="M 673.5,240.5 C 674.833,241.167 674.833,241.167 673.5,240.5 Z"/></g>
<g><path style="opacity:0.004" fill="#e39634" d="M 676.5,241.5 C 677.833,242.167 677.833,242.167 676.5,241.5 Z"/></g>
<g><path style="opacity:0.008" fill="#165584" d="M 514.5,243.5 C 515.833,244.167 515.833,244.167 514.5,243.5 Z"/></g>
<g><path style="opacity:0.012" fill="#e79a36" d="M 650.5,243.5 C 649.833,244.167 649.833,244.167 650.5,243.5 Z"/></g>
<g><path style="opacity:0.008" fill="#19588b" d="M 512.5,244.5 C 513.833,245.167 513.833,245.167 512.5,244.5 Z"/></g>
<g><path style="opacity:0.008" fill="#e29939" d="M 649.5,244.5 C 649.217,245.289 648.717,245.956 648,246.5C 647.472,245.184 647.972,244.517 649.5,244.5 Z"/></g>
<g><path style="opacity:0.999" fill="#0b4e83" d="M 525.5,193.5 C 526.833,193.5 528.167,193.5 529.5,193.5C 545.127,194.492 560.46,197.159 575.5,201.5C 580.999,203.444 586.332,205.778 591.5,208.5C 592.429,209.315 593.429,210.148 594.5,211C 593.944,211.383 593.611,211.883 593.5,212.5C 567.088,222.637 540.754,232.971 514.5,243.5C 496.288,249.596 479.121,255.929 463,262.5C 454.419,265.875 446.253,269.875 438.5,274.5C 436.181,274.992 434.181,275.992 432.5,277.5C 427.68,279.074 423.347,281.407 419.5,284.5C 417.973,284.427 416.973,285.094 416.5,286.5C 384.616,303.311 362.616,327.644 350.5,359.5C 350.167,359.5 349.833,359.5 349.5,359.5C 347.058,364.947 346.058,370.78 346.5,377C 346.431,381.585 346.931,386.085 348,390.5C 348.497,388.19 348.663,385.857 348.5,383.5C 349.492,387.404 350.492,391.404 351.5,395.5C 350.778,395.082 350.278,394.416 350,393.5C 350,395.5 350,397.5 350,399.5C 349.252,397.668 348.252,396.001 347,394.5C 346.508,395.549 346.674,396.549 347.5,397.5C 347.167,398.5 346.5,399.167 345.5,399.5C 345.346,398.091 345.179,396.424 345,394.5C 343.943,396.219 343.11,398.053 342.5,400C 343.536,401.617 344.703,401.784 346,400.5C 346.456,401.744 345.956,402.577 344.5,403C 347.669,406.419 350.169,405.919 352,401.5C 354.58,406.577 357.747,411.244 361.5,415.5C 360.5,416.333 359.5,417.167 358.5,418C 359.337,419.011 359.67,420.178 359.5,421.5C 358.178,421.67 357.011,421.337 356,420.5C 355.383,421.449 355.549,422.282 356.5,423C 355.833,423.333 355.167,423.667 354.5,424C 354.404,425.373 354.57,426.873 355,428.5C 354.085,427.672 353.419,426.672 353,425.5C 352.086,429.185 351.419,428.852 351,424.5C 349.991,426.025 349.491,427.692 349.5,429.5C 353.226,431.227 356.059,430.227 358,426.5C 358.5,427 359,427.5 359.5,428C 358.167,428.667 357.167,429.667 356.5,431C 357.449,431.617 358.282,431.451 359,430.5C 359.483,431.448 359.649,432.448 359.5,433.5C 357.669,432.948 356.003,432.948 354.5,433.5C 355.183,436.461 356.016,436.795 357,434.5C 360.895,436.528 362.062,439.528 360.5,443.5C 361.032,445.741 362.365,447.241 364.5,448C 364.153,449.569 363.986,451.402 364,453.5C 364.308,452.692 364.808,452.025 365.5,451.5C 365.736,452.247 366.07,453.08 366.5,454C 364.122,454.511 361.788,455.178 359.5,456C 360.772,457.246 361.105,458.413 360.5,459.5C 358.932,457.8 357.099,456.466 355,455.5C 354.667,456.167 354.333,456.833 354,457.5C 353.626,455.102 353.626,452.769 354,450.5C 353.25,451.126 352.416,451.626 351.5,452C 352.747,453.494 352.747,454.994 351.5,456.5C 349.964,455.064 348.297,454.231 346.5,454C 347.833,453.667 349.167,453.333 350.5,453C 348.416,452.222 346.583,451.055 345,449.5C 344.468,452.865 342.634,455.198 339.5,456.5C 340.695,457.967 340.695,459.467 339.5,461C 339.903,462.473 340.57,463.806 341.5,465C 340.366,466.016 340.699,466.683 342.5,467C 340.009,467.626 340.009,468.459 342.5,469.5C 340.278,473.712 339.111,473.379 339,468.5C 338.346,469.696 337.846,469.696 337.5,468.5C 340.076,467.117 339.742,466.283 336.5,466C 337.328,465.085 338.328,464.419 339.5,464C 338.773,462.601 338.273,461.101 338,459.5C 336.989,458.663 335.822,458.33 334.5,458.5C 334.33,459.822 334.663,460.989 335.5,462C 335,462.5 334.5,463 334,463.5C 334.037,455.9 332.704,455.567 330,462.5C 327.833,462.333 325.667,462.167 323.5,462C 322.624,460.415 321.291,459.415 319.5,459C 319.833,458.667 320.167,458.333 320.5,458C 319.167,457.667 317.833,457.333 316.5,457C 317.675,454.162 317.509,451.329 316,448.5C 315.626,449.416 315.126,450.25 314.5,451C 310.573,453.128 306.74,455.295 303,457.5C 302.174,455.595 301.007,455.261 299.5,456.5C 300.485,458.098 300.651,459.765 300,461.5C 299.626,460.584 299.126,459.75 298.5,459C 293.524,458.655 289.691,456.489 287,452.5C 285.627,452.404 284.127,452.57 282.5,453C 283.191,451.933 283.691,450.766 284,449.5C 285,449.833 286,450.167 287,450.5C 289.876,445.139 288.542,443.139 283,444.5C 282.5,444 282,443.5 281.5,443C 282.406,441.301 282.739,439.467 282.5,437.5C 280.058,437.354 279.391,438.187 280.5,440C 279.667,440.833 278.833,441.667 278,442.5C 276.47,440.774 275.47,438.774 275,436.5C 272.711,439.09 273.211,440.923 276.5,442C 272.352,442.458 271.519,444.291 274,447.5C 274.333,446.5 274.667,445.5 275,444.5C 277.226,446.159 278.893,445.492 280,442.5C 281.881,446.095 280.881,448.762 277,450.5C 276.517,451.448 276.351,452.448 276.5,453.5C 274.876,453.64 273.71,452.973 273,451.5C 271.719,451.381 270.552,451.881 269.5,453C 271.049,454.214 272.215,455.714 273,457.5C 274.11,455.963 275.61,455.297 277.5,455.5C 277.378,458.257 278.545,460.257 281,461.5C 281.667,460.833 282.333,460.167 283,459.5C 283.718,460.451 284.551,460.617 285.5,460C 284.304,459.346 284.304,458.846 285.5,458.5C 286.614,459.723 286.781,461.056 286,462.5C 283.46,461.124 281.46,461.79 280,464.5C 280,465.833 280,467.167 280,468.5C 279.28,466.745 278.113,465.911 276.5,466C 277.065,467.674 277.232,469.507 277,471.5C 278.635,470.151 280.135,470.318 281.5,472C 278.833,472.667 276.167,472.667 273.5,472C 274.167,471.667 274.833,471.333 275.5,471C 273.023,469.625 272.189,467.791 273,465.5C 271.434,466.061 270.101,465.394 269,463.5C 268.5,464 268,464.5 267.5,465C 268.858,466.309 270.191,467.642 271.5,469C 270.576,470.811 269.743,470.645 269,468.5C 268.527,470.779 267.527,472.779 266,474.5C 265.517,473.552 265.351,472.552 265.5,471.5C 259.015,469.962 258.015,471.795 262.5,477C 262.167,477.333 261.833,477.667 261.5,478C 263.167,478.667 264.833,478.667 266.5,478C 265.5,477.667 264.5,477.333 263.5,477C 266.512,475.523 269.512,475.856 272.5,478C 272.492,481.6 270.992,482.1 268,479.5C 266.865,479.727 265.698,480.06 264.5,480.5C 265.109,483.837 266.276,484.17 268,481.5C 270.668,482.98 270.835,484.48 268.5,486C 269.749,487.824 270.915,487.657 272,485.5C 272.167,485.833 272.333,486.167 272.5,486.5C 271.167,488.167 269.833,489.833 268.5,491.5C 269.848,491.45 271.348,491.783 273,492.5C 273.749,493.635 273.583,494.635 272.5,495.5C 270.634,494.437 270.134,495.104 271,497.5C 272,497.167 273,496.833 274,496.5C 277.007,498.804 279.84,500.637 282.5,502C 281.333,502.5 280.5,503.333 280,504.5C 279.692,503.692 279.192,503.025 278.5,502.5C 277.304,502.846 277.304,503.346 278.5,504C 277.167,504.333 275.833,504.667 274.5,505C 275.298,506.833 276.298,508.666 277.5,510.5C 277.392,511.442 277.059,512.275 276.5,513C 277.91,513.368 278.91,514.201 279.5,515.5C 279.154,516.696 278.654,516.696 278,515.5C 277.293,517.081 276.46,518.581 275.5,520C 276.744,520.456 277.577,519.956 278,518.5C 280.261,520.383 282.428,521.716 284.5,522.5C 284.333,522.833 284.167,523.167 284,523.5C 279.052,520.216 274.886,521.049 271.5,526C 273.087,526.862 274.754,527.529 276.5,528C 275.313,529.019 274.313,530.186 273.5,531.5C 275.485,531.604 276.985,532.937 278,535.5C 278.333,535.167 278.667,534.833 279,534.5C 279.781,535.944 279.614,537.277 278.5,538.5C 277.604,537.494 276.938,537.494 276.5,538.5C 277.833,539.5 279.167,540.5 280.5,541.5C 279.359,542.425 279.359,543.259 280.5,544C 278.553,543.464 276.553,543.798 274.5,545C 275.833,545.333 277.167,545.667 278.5,546C 278.167,546.333 277.833,546.667 277.5,547C 278.842,549.015 279.342,551.182 279,553.5C 277.989,552.663 276.822,552.33 275.5,552.5C 275.657,551.127 275.49,549.793 275,548.5C 274.333,549.833 273.333,550.833 272,551.5C 271.535,550.069 270.701,548.903 269.5,548C 270.5,547.167 271.5,546.333 272.5,545.5C 271.965,543.899 270.965,543.399 269.5,544C 269.833,544.333 270.167,544.667 270.5,545C 266.432,547.978 266.432,550.978 270.5,554C 268.186,557.177 265.352,559.677 262,561.5C 261.692,560.692 261.192,560.025 260.5,559.5C 258.714,561.021 256.881,561.354 255,560.5C 254.506,562.134 254.34,563.801 254.5,565.5C 256.359,565.539 257.692,564.706 258.5,563C 260.18,562.966 261.68,562.799 263,562.5C 266.078,564.955 269.244,567.289 272.5,569.5C 273.519,568.313 274.686,567.313 276,566.5C 276.692,567.025 277.192,567.692 277.5,568.5C 276.263,569.281 275.263,570.281 274.5,571.5C 276.197,572.364 277.363,573.697 278,575.5C 279.249,573.008 280.416,573.175 281.5,576C 279.919,576.707 278.419,577.54 277,578.5C 275.937,577.562 274.77,576.562 273.5,575.5C 271.82,578.161 270.487,577.994 269.5,575C 269.735,574.127 270.069,573.293 270.5,572.5C 270.154,571.304 269.654,571.304 269,572.5C 268.792,574.859 268.626,577.026 268.5,579C 269.386,580.217 270.386,581.551 271.5,583C 270.167,583.667 270.167,584.333 271.5,585C 269.956,585.29 268.623,585.956 267.5,587C 268.69,589.116 270.023,591.116 271.5,593C 271.45,595.664 270.783,597.998 269.5,600C 271.454,599.547 273.287,599.38 275,599.5C 275.308,600.308 275.808,600.975 276.5,601.5C 276.911,600.738 277.077,599.738 277,598.5C 278.158,598.998 278.991,599.831 279.5,601C 278.171,603.509 276.171,605.342 273.5,606.5C 276.12,608.465 275.786,609.965 272.5,611C 273.591,613.064 273.758,615.231 273,617.5C 272.667,616.833 272.333,616.167 272,615.5C 271.355,616.646 270.522,617.646 269.5,618.5C 272.879,619.688 275.713,621.688 278,624.5C 279.617,623.464 279.784,622.297 278.5,621C 281.943,621.25 282.276,622.584 279.5,625C 280.742,628.357 281.576,628.19 282,624.5C 283,624.167 284,623.833 285,623.5C 285.278,626.704 284.944,630.038 284,633.5C 284.419,634.672 285.085,635.672 286,636.5C 286.14,633.957 286.806,631.623 288,629.5C 290.023,631.013 289.856,632.346 287.5,633.5C 288.246,634.736 288.579,636.07 288.5,637.5C 289.552,637.351 290.552,637.517 291.5,638C 288.111,639.445 284.944,641.278 282,643.5C 281.085,642.672 280.419,641.672 280,640.5C 276.953,641.39 274.786,640.224 273.5,637C 275.891,635.691 275.891,634.691 273.5,634C 275.183,631.817 275.85,629.65 275.5,627.5C 274.352,629.35 273.019,630.017 271.5,629.5C 272.025,630.192 272.692,630.692 273.5,631C 271.845,632.444 271.178,634.278 271.5,636.5C 270.5,636.5 269.5,636.5 268.5,636.5C 268.259,639.999 269.092,640.332 271,637.5C 271.5,638 272,638.5 272.5,639C 271.315,640.353 269.981,641.52 268.5,642.5C 268.846,643.696 269.346,643.696 270,642.5C 270.5,644.333 271.667,645.5 273.5,646C 270.898,647.554 269.731,649.72 270,652.5C 270.811,651.04 271.645,650.707 272.5,651.5C 271.93,654.784 270.263,655.784 267.5,654.5C 268.309,652.929 268.643,651.262 268.5,649.5C 267.5,649.5 266.5,649.5 265.5,649.5C 266.785,651.855 266.785,653.688 265.5,655C 263.945,656.646 262.279,656.979 260.5,656C 260.026,657.729 259.026,658.895 257.5,659.5C 241.655,637.535 229.488,613.535 221,587.5C 218.2,578.968 216.034,570.301 214.5,561.5C 213.833,560.167 213.167,558.833 212.5,557.5C 211.944,549.298 210.278,541.465 207.5,534C 208.423,531.959 208.756,529.792 208.5,527.5C 209.748,530.942 210.581,534.608 211,538.5C 210.632,529.176 209.965,519.843 209,510.5C 208.806,493.991 208.64,477.658 208.5,461.5C 209.36,457.566 209.693,453.566 209.5,449.5C 209.989,441.233 211.322,433.233 213.5,425.5C 222.394,383.725 239.394,345.725 264.5,311.5C 267.802,307.191 271.136,302.857 274.5,298.5C 282.806,289.86 291.139,281.193 299.5,272.5C 303.105,270.528 306.105,267.861 308.5,264.5C 318.857,256.469 329.191,248.469 339.5,240.5C 348.1,235.89 356.434,230.89 364.5,225.5C 392.782,211.628 422.448,201.962 453.5,196.5C 451.046,197.621 448.379,198.454 445.5,199C 446.5,199.167 447.5,199.333 448.5,199.5C 474.156,195.427 499.822,193.427 525.5,193.5 Z"/></g>
<g><path style="opacity:0.004" fill="#195686" d="M 506.5,247.5 C 506.897,246.475 507.563,246.308 508.5,247C 507.906,247.464 507.239,247.631 506.5,247.5 Z"/></g>
<g><path style="opacity:0.008" fill="#e59a35" d="M 653.5,246.5 C 652.833,247.167 652.833,247.167 653.5,246.5 Z"/></g>
<g><path style="opacity:0.008" fill="#e79b37" d="M 655.5,249.5 C 656.833,250.167 656.833,250.167 655.5,249.5 Z"/></g>
<g><path style="opacity:0.012" fill="#e79c37" d="M 658.5,253.5 C 659.833,254.167 659.833,254.167 658.5,253.5 Z"/></g>
<g><path style="opacity:0.012" fill="#e89a33" d="M 662.5,254.5 C 661.833,255.167 661.833,255.167 662.5,254.5 Z"/></g>
<g><path style="opacity:0.004" fill="#ea962a" d="M 695.5,255.5 C 696.833,256.167 696.833,256.167 695.5,255.5 Z"/></g>
<g><path style="opacity:0.012" fill="#e99a34" d="M 664.5,256.5 C 663.833,257.167 663.833,257.167 664.5,256.5 Z"/></g>
<g><path style="opacity:0.004" fill="#e9982d" d="M 698.5,257.5 C 699.833,258.167 699.833,258.167 698.5,257.5 Z"/></g>
<g><path style="opacity:0.004" fill="#e8962e" d="M 702.5,260.5 C 703.833,261.167 703.833,261.167 702.5,260.5 Z"/></g>
<g><path style="opacity:0.004" fill="#ec9c35" d="M 668.5,260.5 C 668.631,261.239 668.464,261.906 668,262.5C 667.308,261.563 667.475,260.897 668.5,260.5 Z"/></g>
<g><path style="opacity:0.016" fill="#115184" d="M 304.5,264.5 C 304.897,263.475 305.563,263.308 306.5,264C 305.906,264.464 305.239,264.631 304.5,264.5 Z"/></g>
<g><path style="opacity:0.008" fill="#114f83" d="M 308.5,264.5 C 307.833,263.167 307.833,263.167 308.5,264.5 Z"/></g>
<g><path style="opacity:0.004" fill="#e6962b" d="M 709.5,266.5 C 710.833,267.167 710.833,267.167 709.5,266.5 Z"/></g>
<g><path style="opacity:0.004" fill="#ea9b34" d="M 671.5,267.5 C 672.833,268.167 672.833,268.167 671.5,267.5 Z"/></g>
<g><path style="opacity:0.008" fill="#eb9b33" d="M 676.5,269.5 C 675.833,270.167 675.833,270.167 676.5,269.5 Z"/></g>
<g><path style="opacity:0.004" fill="#0e4f84" d="M 299.5,272.5 C 298.833,271.167 298.833,271.167 299.5,272.5 Z"/></g>
<g><path style="opacity:0.004" fill="#e89928" d="M 714.5,271.5 C 715.833,272.167 715.833,272.167 714.5,271.5 Z"/></g>
<g><path style="opacity:0.004" fill="#115184" d="M 295.5,272.5 C 296.833,273.167 296.833,273.167 295.5,272.5 Z"/></g>
<g><path style="opacity:0.004" fill="#155788" d="M 438.5,274.5 C 439.833,275.167 439.833,275.167 438.5,274.5 Z"/></g>
<g><path style="opacity:0.004" fill="#e7962a" d="M 718.5,275.5 C 719.833,276.167 719.833,276.167 718.5,275.5 Z"/></g>
<g><path style="opacity:0.008" fill="#ef9d34" d="M 680.5,276.5 C 681.833,277.167 681.833,277.167 680.5,276.5 Z"/></g>
<g><path style="opacity:0.012" fill="#14568a" d="M 432.5,277.5 C 433.833,278.167 433.833,278.167 432.5,277.5 Z"/></g>
<g><path style="opacity:0.008" fill="#ec9b32" d="M 679.5,278.5 C 680.833,279.167 680.833,279.167 679.5,278.5 Z"/></g>
<g><path style="opacity:0.004" fill="#ea9825" d="M 722.5,279.5 C 723.833,280.167 723.833,280.167 722.5,279.5 Z"/></g>
<g><path style="opacity:0.004" fill="#125588" d="M 419.5,285.5 C 419.5,285.167 419.5,284.833 419.5,284.5C 422.167,284.833 422.167,285.167 419.5,285.5 Z"/></g>
<g><path style="opacity:0.012" fill="#135588" d="M 419.5,285.5 C 419.5,285.833 419.5,286.167 419.5,286.5C 418.83,286.019 418.83,285.685 419.5,285.5 Z"/></g>
<g><path style="opacity:0.004" fill="#135487" d="M 416.5,286.5 C 417.833,287.167 417.833,287.167 416.5,286.5 Z"/></g>
<g><path style="opacity:0.006" fill="#17568a" d="M 419.5,286.5 C 420.239,286.369 420.906,286.536 421.5,287C 420.563,287.692 419.897,287.525 419.5,286.5 Z"/></g>
<g><path style="opacity:0.004" fill="#ef9e33" d="M 689.5,287.5 C 688.833,288.167 688.833,288.167 689.5,287.5 Z"/></g>
<g><path style="opacity:0.012" fill="#e99728" d="M 730.5,287.5 C 731.833,288.167 731.833,288.167 730.5,287.5 Z"/></g>
<g><path style="opacity:0.004" fill="#105185" d="M 279.5,288.5 C 280.833,289.167 280.833,289.167 279.5,288.5 Z"/></g>
<g><path style="opacity:0.004" fill="#ee9b30" d="M 691.5,290.5 C 690.833,291.167 690.833,291.167 691.5,290.5 Z"/></g>
<g><path style="opacity:0.004" fill="#ed992b" d="M 693.5,293.5 C 692.833,294.167 692.833,294.167 693.5,293.5 Z"/></g>
<g><path style="opacity:0.006" fill="#115384" d="M 271.5,297.5 C 272.525,297.897 272.692,298.563 272,299.5C 271.536,298.906 271.369,298.239 271.5,297.5 Z"/></g>
<g><path style="opacity:0.004" fill="#105084" d="M 274.5,298.5 C 273.833,297.167 273.833,297.167 274.5,298.5 Z"/></g>
<g><path style="opacity:0.008" fill="#ee9b32" d="M 695.5,300.5 C 696.833,301.167 696.833,301.167 695.5,300.5 Z"/></g>
<g><path style="opacity:0.01" fill="#ef9a34" d="M 695.5,303.5 C 695.897,302.475 696.563,302.308 697.5,303C 696.906,303.464 696.239,303.631 695.5,303.5 Z"/></g>
<g><path style="opacity:0.012" fill="#145585" d="M 495.5,304.5 C 495.897,303.475 496.563,303.308 497.5,304C 496.906,304.464 496.239,304.631 495.5,304.5 Z"/></g>
<g><path style="opacity:0.012" fill="#125384" d="M 498.5,304.5 C 498.897,303.475 499.563,303.308 500.5,304C 499.906,304.464 499.239,304.631 498.5,304.5 Z"/></g>
<g><path style="opacity:0.004" fill="#114c7b" d="M 502.5,304.5 C 501.833,303.167 501.833,303.167 502.5,304.5 Z"/></g>
<g><path style="opacity:0.004" fill="#185382" d="M 520.5,303.5 C 521.833,304.167 521.833,304.167 520.5,303.5 Z"/></g>
<g><path style="opacity:0.643" fill="#3b76a3" d="M 520.5,304.5 C 520.5,304.833 520.5,305.167 520.5,305.5C 514.5,305.5 508.5,305.5 502.5,305.5C 502.5,305.167 502.5,304.833 502.5,304.5C 508.308,304.217 514.308,304.217 520.5,304.5 Z"/></g>
<g><path style="opacity:0.004" fill="#1b5783" d="M 526.5,304.5 C 527.833,305.167 527.833,305.167 526.5,304.5 Z"/></g>
<g><path style="opacity:0.004" fill="#ef9d34" d="M 695.5,304.5 C 696.833,305.167 696.833,305.167 695.5,304.5 Z"/></g>
<g><path style="opacity:0.004" fill="#f09c2f" d="M 697.5,304.5 C 698.833,305.167 698.833,305.167 697.5,304.5 Z"/></g>
<g><path style="opacity:0.008" fill="#e69528" d="M 746.5,305.5 C 747.833,306.167 747.833,306.167 746.5,305.5 Z"/></g>
<g><path style="opacity:0.008" fill="#ea9529" d="M 749.5,305.5 C 750.833,306.167 750.833,306.167 749.5,305.5 Z"/></g>
<g><path style="opacity:0.999" fill="#0c4e82" d="M 502.5,305.5 C 508.5,305.5 514.5,305.5 520.5,305.5C 533.029,307.349 543.529,313.015 552,322.5C 555.11,327.064 557.944,331.731 560.5,336.5C 568.997,364.973 560.664,386.806 535.5,402C 531.979,403.674 528.313,404.84 524.5,405.5C 517.52,406.165 510.52,406.498 503.5,406.5C 492.649,405.407 483.316,401.074 475.5,393.5C 471.737,389.748 468.404,385.748 465.5,381.5C 464.698,378.426 463.698,375.426 462.5,372.5C 463.239,372.631 463.906,372.464 464.5,372C 462.21,365.057 461.043,357.891 461,350.5C 460.501,354.821 460.334,359.154 460.5,363.5C 457.408,341.958 464.741,324.791 482.5,312C 488.639,308.12 495.305,305.954 502.5,305.5 Z"/></g>
<g><path style="opacity:0.004" fill="#ee9d30" d="M 698.5,306.5 C 699.833,307.167 699.833,307.167 698.5,306.5 Z"/></g>
<g><path style="opacity:0.004" fill="#f09d33" d="M 700.5,310.5 C 699.833,309.167 699.833,309.167 700.5,310.5 Z"/></g>
<g><path style="opacity:0.004" fill="#0b4b81" d="M 264.5,311.5 C 263.833,310.167 263.833,310.167 264.5,311.5 Z"/></g>
<g><path style="opacity:0.004" fill="#155788" d="M 388.5,310.5 C 389.833,311.167 389.833,311.167 388.5,310.5 Z"/></g>
<g><path style="opacity:0.004" fill="#f09c2e" d="M 700.5,310.5 C 701.833,311.167 701.833,311.167 700.5,310.5 Z"/></g>
<g><path style="opacity:0.004" fill="#104f84" d="M 258.5,316.5 C 259.833,317.167 259.833,317.167 258.5,316.5 Z"/></g>
<g><path style="opacity:0.02" fill="#ee9a34" d="M 704.5,317.5 C 704.649,318.552 704.483,319.552 704,320.5C 703.26,319.251 703.427,318.251 704.5,317.5 Z"/></g>
<g><path style="opacity:0.012" fill="#165888" d="M 373.5,321.5 C 374.833,322.167 374.833,322.167 373.5,321.5 Z"/></g>
<g><path style="opacity:0.008" fill="#f39d32" d="M 704.5,322.5 C 705.833,323.167 705.833,323.167 704.5,322.5 Z"/></g>
<g><path style="opacity:0.008" fill="#e89629" d="M 758.5,322.5 C 759.833,323.167 759.833,323.167 758.5,322.5 Z"/></g>
<g><path style="opacity:0.004" fill="#f19f36" d="M 705.5,325.5 C 706.833,326.167 706.833,326.167 705.5,325.5 Z"/></g>
<g><path style="opacity:0.008" fill="#f19d30" d="M 706.5,329.5 C 707.833,330.167 707.833,330.167 706.5,329.5 Z"/></g>
<g><path style="opacity:0.004" fill="#e99227" d="M 766.5,334.5 C 767.833,335.167 767.833,335.167 766.5,334.5 Z"/></g>
<g><path style="opacity:0.008" fill="#26597d" d="M 561.5,336.5 C 560.833,335.167 560.833,335.167 561.5,336.5 Z"/></g>
<g><path style="opacity:0.008" fill="#285c82" d="M 561.5,336.5 C 562.833,337.167 562.833,337.167 561.5,336.5 Z"/></g>
<g><path style="opacity:0.012" fill="#e79329" d="M 773.5,342.5 C 774.833,343.167 774.833,343.167 773.5,342.5 Z"/></g>
<g><path style="opacity:0.012" fill="#175a8b" d="M 356.5,347.5 C 357.833,348.167 357.833,348.167 356.5,347.5 Z"/></g>
<g><path style="opacity:0.004" fill="#144e84" d="M 457.5,355.5 C 458.833,356.167 458.833,356.167 457.5,355.5 Z"/></g>
<g><path style="opacity:0.004" fill="#135587" d="M 457.5,359.5 C 458.833,360.167 458.833,360.167 457.5,359.5 Z"/></g>
<g><path style="opacity:0.998" fill="#002b5b" d="M 560.5,343.5 C 561.29,344.609 561.79,345.942 562,347.5C 562.667,352.833 562.667,358.167 562,363.5C 561.61,356.816 561.11,350.15 560.5,343.5 Z"/></g>
<g><path style="opacity:0.004" fill="#145287" d="M 231.5,363.5 C 232.833,364.167 232.833,364.167 231.5,363.5 Z"/></g>
<g><path style="opacity:0.004" fill="#285c85" d="M 565.5,366.5 C 566.833,367.167 566.833,367.167 565.5,366.5 Z"/></g>
<g><path style="opacity:0.996" fill="#133d6d" d="M 462.5,372.5 C 461.087,369.781 460.42,366.781 460.5,363.5C 460.334,359.154 460.501,354.821 461,350.5C 461.043,357.891 462.21,365.057 464.5,372C 463.906,372.464 463.239,372.631 462.5,372.5 Z"/></g>
<g><path style="opacity:0.661" fill="#3f7ca8" d="M 349.5,359.5 C 349.833,359.5 350.167,359.5 350.5,359.5C 348.982,367.418 348.315,375.418 348.5,383.5C 347.224,375.588 347.557,367.588 349.5,359.5 Z"/></g>
<g><path style="opacity:0.004" fill="#155588" d="M 349.5,378.5 C 350.833,379.167 350.833,379.167 349.5,378.5 Z"/></g>
<g><path style="opacity:0.984" fill="#023162" d="M 349.5,359.5 C 347.557,367.588 347.224,375.588 348.5,383.5C 348.663,385.857 348.497,388.19 348,390.5C 346.931,386.085 346.431,381.585 346.5,377C 346.058,370.78 347.058,364.947 349.5,359.5 Z"/></g>
<g><path style="opacity:0.004" fill="#145385" d="M 465.5,381.5 C 464.833,382.167 464.833,382.167 465.5,381.5 Z"/></g>
<g><path style="opacity:0.004" fill="#ea952b" d="M 790.5,382.5 C 790.369,381.761 790.536,381.094 791,380.5C 791.692,381.437 791.525,382.103 790.5,382.5 Z"/></g>
<g><path style="opacity:0.004" fill="#145486" d="M 464.5,383.5 C 465.833,384.167 465.833,384.167 464.5,383.5 Z"/></g>
<g><path style="opacity:0.008" fill="#f09d32" d="M 706.5,383.5 C 707.833,384.167 707.833,384.167 706.5,383.5 Z"/></g>
<g><path style="opacity:0.004" fill="#f19d33" d="M 706.5,384.5 C 705.833,385.167 705.833,385.167 706.5,384.5 Z"/></g>
<g><path style="opacity:0.008" fill="#1b5785" d="M 350.5,386.5 C 351.833,387.167 351.833,387.167 350.5,386.5 Z"/></g>
<g><path style="opacity:0.996" fill="#f8ad4f" d="M 707.5,389.5 C 707.472,392.916 706.472,395.916 704.5,398.5C 704.5,397.5 704.5,396.5 704.5,395.5C 705.5,393.5 706.5,391.5 707.5,389.5 Z"/></g>
<g><path style="opacity:0.004" fill="#ef9d33" d="M 704.5,395.5 C 703.475,395.103 703.308,394.437 704,393.5C 704.464,394.094 704.631,394.761 704.5,395.5 Z"/></g>
<g><path style="opacity:0.004" fill="#175688" d="M 471.5,394.5 C 472.833,395.167 472.833,395.167 471.5,394.5 Z"/></g>
<g><path style="opacity:0.004" fill="#e7942a" d="M 798.5,396.5 C 799.833,397.167 799.833,397.167 798.5,396.5 Z"/></g>
<g><path style="opacity:0.004" fill="#17578a" d="M 483.5,401.5 C 484.833,402.167 484.833,402.167 483.5,401.5 Z"/></g>
<g><path style="opacity:0.004" fill="#eb952d" d="M 798.5,403.5 C 799.833,404.167 799.833,404.167 798.5,403.5 Z"/></g>
<g><path style="opacity:0.004" fill="#145588" d="M 490.5,405.5 C 491.833,406.167 491.833,406.167 490.5,405.5 Z"/></g>
<g><path style="opacity:0.004" fill="#115387" d="M 215.5,406.5 C 216.833,407.167 216.833,407.167 215.5,406.5 Z"/></g>
<g><path style="opacity:0.424" fill="#3376a4" d="M 524.5,405.5 C 520.426,406.954 516.093,407.621 511.5,407.5C 508.645,407.497 505.978,407.164 503.5,406.5C 510.52,406.498 517.52,406.165 524.5,405.5 Z"/></g>
<g><path style="opacity:0.004" fill="#1a5584" d="M 526.5,406.5 C 527.833,407.167 527.833,407.167 526.5,406.5 Z"/></g>
<g><path style="opacity:0.004" fill="#ef9e32" d="M 697.5,408.5 C 698.833,409.167 698.833,409.167 697.5,408.5 Z"/></g>
<g><path style="opacity:0.004" fill="#ed9d37" d="M 695.5,410.5 C 696.833,411.167 696.833,411.167 695.5,410.5 Z"/></g>
<g><path style="opacity:0.004" fill="#115384" d="M 207.5,424.5 C 208.833,425.167 208.833,425.167 207.5,424.5 Z"/></g>
<g><path style="opacity:0.004" fill="#155789" d="M 377.5,424.5 C 378.833,425.167 378.833,425.167 377.5,424.5 Z"/></g>
<g><path style="opacity:0.992" fill="#033061" d="M 213.5,425.5 C 214.268,424.737 214.768,423.737 215,422.5C 215.312,427.269 214.645,431.935 213,436.5C 212.938,432.852 213.105,429.185 213.5,425.5 Z"/></g>
<g><path style="opacity:0.004" fill="#406781" d="M 605.5,432.5 C 605.897,431.475 606.563,431.308 607.5,432C 606.906,432.464 606.239,432.631 605.5,432.5 Z"/></g>
<g><path style="opacity:0.008" fill="#44667c" d="M 609.5,432.5 C 608.833,431.167 608.833,431.167 609.5,432.5 Z"/></g>
<g><path style="opacity:0.796" fill="#59758a" d="M 619.5,434.5 C 618.448,432.744 616.781,432.077 614.5,432.5C 616.97,431.307 619.636,430.807 622.5,431C 621.364,432.145 620.364,433.312 619.5,434.5 Z"/></g>
<g><path style="opacity:0.008" fill="#155385" d="M 207.5,432.5 C 208.833,433.167 208.833,433.167 207.5,432.5 Z"/></g>
<g><path style="opacity:0.004" fill="#ea952d" d="M 805.5,431.5 C 806.525,431.897 806.692,432.563 806,433.5C 805.536,432.906 805.369,432.239 805.5,431.5 Z"/></g>
<g><path style="opacity:0.012" fill="#eb9d36" d="M 683.5,434.5 C 682.833,433.167 682.833,433.167 683.5,434.5 Z"/></g>
<g><path style="opacity:0.004" fill="#ec9e37" d="M 679.5,435.5 C 680.833,436.167 680.833,436.167 679.5,435.5 Z"/></g>
<g><path style="opacity:0.008" fill="#6d7772" d="M 622.5,436.5 C 623.833,437.167 623.833,437.167 622.5,436.5 Z"/></g>
<g><path style="opacity:0.999" fill="#0c4e82" d="M 351.5,395.5 C 356.918,408.255 365.584,418.255 377.5,425.5C 388.254,433.202 400.254,438.202 413.5,440.5C 416.78,441.712 420.113,442.712 423.5,443.5C 434.062,445.913 444.728,447.58 455.5,448.5C 462.066,450.032 470.066,450.699 479.5,450.5C 490.362,450.488 501.028,449.821 511.5,448.5C 514.167,447.833 516.833,447.167 519.5,446.5C 548.365,443.9 577.032,439.9 605.5,434.5C 608.781,434.58 611.781,433.913 614.5,432.5C 616.781,432.077 618.448,432.744 619.5,434.5C 613.056,440.772 606.389,446.939 599.5,453C 591.255,458.61 583.255,464.443 575.5,470.5C 568.494,474 561.827,478 555.5,482.5C 552.669,483.079 550.336,484.412 548.5,486.5C 546.181,486.992 544.181,487.992 542.5,489.5C 538.849,490.659 535.515,492.326 532.5,494.5C 530.181,494.992 528.181,495.992 526.5,497.5C 524.181,497.992 522.181,498.992 520.5,500.5C 505.995,506.258 491.661,512.258 477.5,518.5C 473.203,519.655 469.203,521.321 465.5,523.5C 451.448,527.624 438.114,533.29 425.5,540.5C 421.592,541.769 417.925,543.435 414.5,545.5C 411.46,546.68 408.794,548.347 406.5,550.5C 403.296,551.383 400.629,553.05 398.5,555.5C 393.635,557.763 389.302,560.763 385.5,564.5C 382.891,565.443 380.891,567.11 379.5,569.5C 373.479,573.521 368.479,578.521 364.5,584.5C 358.717,590.045 353.884,596.378 350,603.5C 345.903,611.019 342.403,618.685 339.5,626.5C 339.631,625.761 339.464,625.094 339,624.5C 336.328,630.51 334.661,636.843 334,643.5C 333.333,653.5 333.333,663.5 334,673.5C 334.204,676.797 335.037,679.797 336.5,682.5C 337.167,683.5 337.833,684.5 338.5,685.5C 341.09,694.526 344.757,703.526 349.5,712.5C 349.328,713.492 349.662,714.158 350.5,714.5C 352.664,719.5 355.331,724.167 358.5,728.5C 360.445,732.736 363.112,736.403 366.5,739.5C 368.688,743.207 371.355,746.54 374.5,749.5C 374.427,751.027 375.094,752.027 376.5,752.5C 379.462,755.964 382.629,759.297 386,762.5C 386.591,763.483 386.257,764.15 385,764.5C 376.526,761.513 368.359,757.846 360.5,753.5C 357.669,751.583 354.669,749.917 351.5,748.5C 351.158,747.662 350.492,747.328 349.5,747.5C 345.465,744.143 341.132,741.143 336.5,738.5C 326.857,731.198 317.191,723.865 307.5,716.5C 302.822,710.823 297.489,705.823 291.5,701.5C 284.841,693.508 277.841,685.841 270.5,678.5C 265.776,672.441 261.443,666.108 257.5,659.5C 259.026,658.895 260.026,657.729 260.5,656C 262.279,656.979 263.945,656.646 265.5,655C 266.785,653.688 266.785,651.855 265.5,649.5C 266.5,649.5 267.5,649.5 268.5,649.5C 268.643,651.262 268.309,652.929 267.5,654.5C 270.263,655.784 271.93,654.784 272.5,651.5C 271.645,650.707 270.811,651.04 270,652.5C 269.731,649.72 270.898,647.554 273.5,646C 271.667,645.5 270.5,644.333 270,642.5C 269.346,643.696 268.846,643.696 268.5,642.5C 269.981,641.52 271.315,640.353 272.5,639C 272,638.5 271.5,638 271,637.5C 269.092,640.332 268.259,639.999 268.5,636.5C 269.5,636.5 270.5,636.5 271.5,636.5C 271.178,634.278 271.845,632.444 273.5,631C 272.692,630.692 272.025,630.192 271.5,629.5C 273.019,630.017 274.352,629.35 275.5,627.5C 275.85,629.65 275.183,631.817 273.5,634C 275.891,634.691 275.891,635.691 273.5,637C 274.786,640.224 276.953,641.39 280,640.5C 280.419,641.672 281.085,642.672 282,643.5C 284.944,641.278 288.111,639.445 291.5,638C 290.552,637.517 289.552,637.351 288.5,637.5C 288.579,636.07 288.246,634.736 287.5,633.5C 289.856,632.346 290.023,631.013 288,629.5C 286.806,631.623 286.14,633.957 286,636.5C 285.085,635.672 284.419,634.672 284,633.5C 284.944,630.038 285.278,626.704 285,623.5C 284,623.833 283,624.167 282,624.5C 281.576,628.19 280.742,628.357 279.5,625C 282.276,622.584 281.943,621.25 278.5,621C 279.784,622.297 279.617,623.464 278,624.5C 275.713,621.688 272.879,619.688 269.5,618.5C 270.522,617.646 271.355,616.646 272,615.5C 272.333,616.167 272.667,616.833 273,617.5C 273.758,615.231 273.591,613.064 272.5,611C 275.786,609.965 276.12,608.465 273.5,606.5C 276.171,605.342 278.171,603.509 279.5,601C 278.991,599.831 278.158,598.998 277,598.5C 277.077,599.738 276.911,600.738 276.5,601.5C 275.808,600.975 275.308,600.308 275,599.5C 273.287,599.38 271.454,599.547 269.5,600C 270.783,597.998 271.45,595.664 271.5,593C 270.023,591.116 268.69,589.116 267.5,587C 268.623,585.956 269.956,585.29 271.5,585C 270.167,584.333 270.167,583.667 271.5,583C 270.386,581.551 269.386,580.217 268.5,579C 268.626,577.026 268.792,574.859 269,572.5C 269.654,571.304 270.154,571.304 270.5,572.5C 270.069,573.293 269.735,574.127 269.5,575C 270.487,577.994 271.82,578.161 273.5,575.5C 274.77,576.562 275.937,577.562 277,578.5C 278.419,577.54 279.919,576.707 281.5,576C 280.416,573.175 279.249,573.008 278,575.5C 277.363,573.697 276.197,572.364 274.5,571.5C 275.263,570.281 276.263,569.281 277.5,568.5C 277.192,567.692 276.692,567.025 276,566.5C 274.686,567.313 273.519,568.313 272.5,569.5C 269.244,567.289 266.078,564.955 263,562.5C 261.68,562.799 260.18,562.966 258.5,563C 257.692,564.706 256.359,565.539 254.5,565.5C 254.34,563.801 254.506,562.134 255,560.5C 256.881,561.354 258.714,561.021 260.5,559.5C 261.192,560.025 261.692,560.692 262,561.5C 265.352,559.677 268.186,557.177 270.5,554C 266.432,550.978 266.432,547.978 270.5,545C 270.167,544.667 269.833,544.333 269.5,544C 270.965,543.399 271.965,543.899 272.5,545.5C 271.5,546.333 270.5,547.167 269.5,548C 270.701,548.903 271.535,550.069 272,551.5C 273.333,550.833 274.333,549.833 275,548.5C 275.49,549.793 275.657,551.127 275.5,552.5C 276.822,552.33 277.989,552.663 279,553.5C 279.342,551.182 278.842,549.015 277.5,547C 277.833,546.667 278.167,546.333 278.5,546C 277.167,545.667 275.833,545.333 274.5,545C 276.553,543.798 278.553,543.464 280.5,544C 279.359,543.259 279.359,542.425 280.5,541.5C 279.167,540.5 277.833,539.5 276.5,538.5C 276.938,537.494 277.604,537.494 278.5,538.5C 279.614,537.277 279.781,535.944 279,534.5C 278.667,534.833 278.333,535.167 278,535.5C 276.985,532.937 275.485,531.604 273.5,531.5C 274.313,530.186 275.313,529.019 276.5,528C 274.754,527.529 273.087,526.862 271.5,526C 274.886,521.049 279.052,520.216 284,523.5C 284.167,523.167 284.333,522.833 284.5,522.5C 282.428,521.716 280.261,520.383 278,518.5C 277.577,519.956 276.744,520.456 275.5,520C 276.46,518.581 277.293,517.081 278,515.5C 278.654,516.696 279.154,516.696 279.5,515.5C 278.91,514.201 277.91,513.368 276.5,513C 277.059,512.275 277.392,511.442 277.5,510.5C 276.298,508.666 275.298,506.833 274.5,505C 275.833,504.667 277.167,504.333 278.5,504C 277.304,503.346 277.304,502.846 278.5,502.5C 279.192,503.025 279.692,503.692 280,504.5C 280.5,503.333 281.333,502.5 282.5,502C 279.84,500.637 277.007,498.804 274,496.5C 273,496.833 272,497.167 271,497.5C 270.134,495.104 270.634,494.437 272.5,495.5C 273.583,494.635 273.749,493.635 273,492.5C 271.348,491.783 269.848,491.45 268.5,491.5C 269.833,489.833 271.167,488.167 272.5,486.5C 272.333,486.167 272.167,485.833 272,485.5C 270.915,487.657 269.749,487.824 268.5,486C 270.835,484.48 270.668,482.98 268,481.5C 266.276,484.17 265.109,483.837 264.5,480.5C 265.698,480.06 266.865,479.727 268,479.5C 270.992,482.1 272.492,481.6 272.5,478C 269.512,475.856 266.512,475.523 263.5,477C 264.5,477.333 265.5,477.667 266.5,478C 264.833,478.667 263.167,478.667 261.5,478C 261.833,477.667 262.167,477.333 262.5,477C 258.015,471.795 259.015,469.962 265.5,471.5C 265.351,472.552 265.517,473.552 266,474.5C 267.527,472.779 268.527,470.779 269,468.5C 269.743,470.645 270.576,470.811 271.5,469C 270.191,467.642 268.858,466.309 267.5,465C 268,464.5 268.5,464 269,463.5C 270.101,465.394 271.434,466.061 273,465.5C 272.189,467.791 273.023,469.625 275.5,471C 274.833,471.333 274.167,471.667 273.5,472C 276.167,472.667 278.833,472.667 281.5,472C 280.135,470.318 278.635,470.151 277,471.5C 277.232,469.507 277.065,467.674 276.5,466C 278.113,465.911 279.28,466.745 280,468.5C 280,467.167 280,465.833 280,464.5C 281.46,461.79 283.46,461.124 286,462.5C 286.781,461.056 286.614,459.723 285.5,458.5C 284.304,458.846 284.304,459.346 285.5,460C 284.551,460.617 283.718,460.451 283,459.5C 282.333,460.167 281.667,460.833 281,461.5C 278.545,460.257 277.378,458.257 277.5,455.5C 275.61,455.297 274.11,455.963 273,457.5C 272.215,455.714 271.049,454.214 269.5,453C 270.552,451.881 271.719,451.381 273,451.5C 273.71,452.973 274.876,453.64 276.5,453.5C 276.351,452.448 276.517,451.448 277,450.5C 280.881,448.762 281.881,446.095 280,442.5C 278.893,445.492 277.226,446.159 275,444.5C 274.667,445.5 274.333,446.5 274,447.5C 271.519,444.291 272.352,442.458 276.5,442C 273.211,440.923 272.711,439.09 275,436.5C 275.47,438.774 276.47,440.774 278,442.5C 278.833,441.667 279.667,440.833 280.5,440C 279.391,438.187 280.058,437.354 282.5,437.5C 282.739,439.467 282.406,441.301 281.5,443C 282,443.5 282.5,444 283,444.5C 288.542,443.139 289.876,445.139 287,450.5C 286,450.167 285,449.833 284,449.5C 283.691,450.766 283.191,451.933 282.5,453C 284.127,452.57 285.627,452.404 287,452.5C 289.691,456.489 293.524,458.655 298.5,459C 299.126,459.75 299.626,460.584 300,461.5C 300.651,459.765 300.485,458.098 299.5,456.5C 301.007,455.261 302.174,455.595 303,457.5C 306.74,455.295 310.573,453.128 314.5,451C 315.126,450.25 315.626,449.416 316,448.5C 317.509,451.329 317.675,454.162 316.5,457C 317.833,457.333 319.167,457.667 320.5,458C 320.167,458.333 319.833,458.667 319.5,459C 321.291,459.415 322.624,460.415 323.5,462C 325.667,462.167 327.833,462.333 330,462.5C 332.704,455.567 334.037,455.9 334,463.5C 334.5,463 335,462.5 335.5,462C 334.663,460.989 334.33,459.822 334.5,458.5C 335.822,458.33 336.989,458.663 338,459.5C 338.273,461.101 338.773,462.601 339.5,464C 338.328,464.419 337.328,465.085 336.5,466C 339.742,466.283 340.076,467.117 337.5,468.5C 337.846,469.696 338.346,469.696 339,468.5C 339.111,473.379 340.278,473.712 342.5,469.5C 340.009,468.459 340.009,467.626 342.5,467C 340.699,466.683 340.366,466.016 341.5,465C 340.57,463.806 339.903,462.473 339.5,461C 340.695,459.467 340.695,457.967 339.5,456.5C 342.634,455.198 344.468,452.865 345,449.5C 346.583,451.055 348.416,452.222 350.5,453C 349.167,453.333 347.833,453.667 346.5,454C 348.297,454.231 349.964,455.064 351.5,456.5C 352.747,454.994 352.747,453.494 351.5,452C 352.416,451.626 353.25,451.126 354,450.5C 353.626,452.769 353.626,455.102 354,457.5C 354.333,456.833 354.667,456.167 355,455.5C 357.099,456.466 358.932,457.8 360.5,459.5C 361.105,458.413 360.772,457.246 359.5,456C 361.788,455.178 364.122,454.511 366.5,454C 366.07,453.08 365.736,452.247 365.5,451.5C 364.808,452.025 364.308,452.692 364,453.5C 363.986,451.402 364.153,449.569 364.5,448C 362.365,447.241 361.032,445.741 360.5,443.5C 362.062,439.528 360.895,436.528 357,434.5C 356.016,436.795 355.183,436.461 354.5,433.5C 356.003,432.948 357.669,432.948 359.5,433.5C 359.649,432.448 359.483,431.448 359,430.5C 358.282,431.451 357.449,431.617 356.5,431C 357.167,429.667 358.167,428.667 359.5,428C 359,427.5 358.5,427 358,426.5C 356.059,430.227 353.226,431.227 349.5,429.5C 349.491,427.692 349.991,426.025 351,424.5C 351.419,428.852 352.086,429.185 353,425.5C 353.419,426.672 354.085,427.672 355,428.5C 354.57,426.873 354.404,425.373 354.5,424C 355.167,423.667 355.833,423.333 356.5,423C 355.549,422.282 355.383,421.449 356,420.5C 357.011,421.337 358.178,421.67 359.5,421.5C 359.67,420.178 359.337,419.011 358.5,418C 359.5,417.167 360.5,416.333 361.5,415.5C 357.747,411.244 354.58,406.577 352,401.5C 350.169,405.919 347.669,406.419 344.5,403C 345.956,402.577 346.456,401.744 346,400.5C 344.703,401.784 343.536,401.617 342.5,400C 343.11,398.053 343.943,396.219 345,394.5C 345.179,396.424 345.346,398.091 345.5,399.5C 346.5,399.167 347.167,398.5 347.5,397.5C 346.674,396.549 346.508,395.549 347,394.5C 348.252,396.001 349.252,397.668 350,399.5C 350,397.5 350,395.5 350,393.5C 350.278,394.416 350.778,395.082 351.5,395.5 Z"/></g>
<g><path style="opacity:0.004" fill="#2d5f84" d="M 584.5,435.5 C 585.833,436.167 585.833,436.167 584.5,435.5 Z"/></g>
<g><path style="opacity:0.008" fill="#326281" d="M 593.5,434.5 C 594.833,435.167 594.833,435.167 593.5,434.5 Z"/></g>
<g><path style="opacity:0.004" fill="#376484" d="M 591.5,434.5 C 592.833,435.167 592.833,435.167 591.5,434.5 Z"/></g>
<g><path style="opacity:0.843" fill="#4b7591" d="M 609.5,432.5 C 611.167,432.5 612.833,432.5 614.5,432.5C 611.781,433.913 608.781,434.58 605.5,434.5C 605.5,434.167 605.5,433.833 605.5,433.5C 607.099,433.768 608.432,433.434 609.5,432.5 Z"/></g>
<g><path style="opacity:0.012" fill="#386484" d="M 596.5,433.5 C 597.833,434.167 597.833,434.167 596.5,433.5 Z"/></g>
<g><path style="opacity:0.004" fill="#3a627c" d="M 605.5,432.5 C 605.5,432.833 605.5,433.167 605.5,433.5C 604.83,433.019 604.83,432.685 605.5,432.5 Z"/></g>
<g><path style="opacity:0.004" fill="#3e6781" d="M 602.5,432.5 C 603.833,433.167 603.833,433.167 602.5,432.5 Z"/></g>
<g><path style="opacity:0.004" fill="#135789" d="M 208.5,439.5 C 209.833,440.167 209.833,440.167 208.5,439.5 Z"/></g>
<g><path style="opacity:0.004" fill="#0f4f83" d="M 413.5,439.5 C 414.833,440.167 414.833,440.167 413.5,439.5 Z"/></g>
<g><path style="opacity:0.006" fill="#165a8c" d="M 415.5,440.5 C 415.897,439.475 416.563,439.308 417.5,440C 416.906,440.464 416.239,440.631 415.5,440.5 Z"/></g>
<g><path style="opacity:0.006" fill="#1d5b86" d="M 560.5,440.5 C 561.601,439.402 562.934,439.235 564.5,440C 563.207,440.49 561.873,440.657 560.5,440.5 Z"/></g>
<g><path style="opacity:0.004" fill="#155688" d="M 207.5,441.5 C 208.833,442.167 208.833,442.167 207.5,441.5 Z"/></g>
<g><path style="opacity:0.004" fill="#1b5987" d="M 536.5,442.5 C 537.833,443.167 537.833,443.167 536.5,442.5 Z"/></g>
<g><path style="opacity:0.004" fill="#e99c36" d="M 671.5,442.5 C 672.833,443.167 672.833,443.167 671.5,442.5 Z"/></g>
<g><path style="opacity:0.004" fill="#e89c3a" d="M 674.5,442.5 C 675.833,443.167 675.833,443.167 674.5,442.5 Z"/></g>
<g><path style="opacity:0.007" fill="#145486" d="M 207.5,443.5 C 208.573,444.251 208.74,445.251 208,446.5C 207.517,445.552 207.351,444.552 207.5,443.5 Z"/></g>
<g><path style="opacity:0.004" fill="#165488" d="M 491.5,445.5 C 492.833,446.167 492.833,446.167 491.5,445.5 Z"/></g>
<g><path style="opacity:0.004" fill="#155485" d="M 499.5,445.5 C 500.833,446.167 500.833,446.167 499.5,445.5 Z"/></g>
<g><path style="opacity:0.384" fill="#3776a3" d="M 423.5,443.5 C 455.387,447.557 487.387,448.557 519.5,446.5C 516.833,447.167 514.167,447.833 511.5,448.5C 492.833,448.5 474.167,448.5 455.5,448.5C 444.728,447.58 434.062,445.913 423.5,443.5 Z"/></g>
<g><path style="opacity:0.006" fill="#566c79" d="M 606.5,448.5 C 607.525,448.897 607.692,449.563 607,450.5C 606.536,449.906 606.369,449.239 606.5,448.5 Z"/></g>
<g><path style="opacity:0.988" fill="#f8921f" d="M 807.5,452.5 C 808.344,456.099 808.677,459.766 808.5,463.5C 808.666,473.506 808.5,483.506 808,493.5C 807.115,476.129 806.115,458.796 805,441.5C 805.795,445.312 806.629,448.979 807.5,452.5 Z"/></g>
<g><path style="opacity:0.982" fill="#093c6e" d="M 455.5,448.5 C 474.167,448.5 492.833,448.5 511.5,448.5C 501.028,449.821 490.362,450.488 479.5,450.5C 470.066,450.699 462.066,450.032 455.5,448.5 Z"/></g>
<g><path style="opacity:0.004" fill="#576b76" d="M 606.5,451.5 C 607.833,452.167 607.833,452.167 606.5,451.5 Z"/></g>
<g><path style="opacity:0.012" fill="#506b77" d="M 598.5,454.5 C 599.833,455.167 599.833,455.167 598.5,454.5 Z"/></g>
<g><path style="opacity:0.004" fill="#e69837" d="M 652.5,463.5 C 653.833,464.167 653.833,464.167 652.5,463.5 Z"/></g>
<g><path style="opacity:0.004" fill="#e29836" d="M 652.5,464.5 C 652.5,464.833 652.5,465.167 652.5,465.5C 651.83,465.019 651.83,464.685 652.5,464.5 Z"/></g>
<g><path style="opacity:0.004" fill="#506975" d="M 575.5,470.5 C 576.833,471.167 576.833,471.167 575.5,470.5 Z"/></g>
<g><path style="opacity:0.006" fill="#e39a3d" d="M 641.5,473.5 C 639.972,473.483 639.472,472.816 640,471.5C 640.717,472.044 641.217,472.711 641.5,473.5 Z"/></g>
<g><path style="opacity:0.016" fill="#4f6878" d="M 564.5,477.5 C 565.833,478.167 565.833,478.167 564.5,477.5 Z"/></g>
<g><path style="opacity:0.004" fill="#dd9841" d="M 624.5,479.5 C 625.833,480.167 625.833,480.167 624.5,479.5 Z"/></g>
<g><path style="opacity:0.008" fill="#df9a3f" d="M 630.5,480.5 C 629.833,479.167 629.833,479.167 630.5,480.5 Z"/></g>
<g><path style="opacity:0.004" fill="#4f6875" d="M 555.5,482.5 C 556.833,483.167 556.833,483.167 555.5,482.5 Z"/></g>
<g><path style="opacity:0.408" fill="#3775a4" d="M 209.5,449.5 C 209.693,453.566 209.36,457.566 208.5,461.5C 207.202,482.832 207.202,504.165 208.5,525.5C 207.028,514.871 206.361,504.038 206.5,493C 206.303,478.266 207.303,463.766 209.5,449.5 Z"/></g>
<g><path style="opacity:0.008" fill="#5b6c76" d="M 558.5,483.5 C 559.525,483.897 559.692,484.563 559,485.5C 558.536,484.906 558.369,484.239 558.5,483.5 Z"/></g>
<g><path style="opacity:0.004" fill="#526974" d="M 550.5,485.5 C 551.833,486.167 551.833,486.167 550.5,485.5 Z"/></g>
<g><path style="opacity:0.004" fill="#5c6e74" d="M 556.5,485.5 C 557.833,486.167 557.833,486.167 556.5,485.5 Z"/></g>
<g><path style="opacity:0.004" fill="#135185" d="M 204.5,486.5 C 205.833,487.167 205.833,487.167 204.5,486.5 Z"/></g>
<g><path style="opacity:0.004" fill="#516a77" d="M 548.5,486.5 C 549.833,487.167 549.833,487.167 548.5,486.5 Z"/></g>
<g><path style="opacity:1" fill="#022b5b" d="M 208.5,461.5 C 208.64,477.658 208.806,493.991 209,510.5C 209.965,519.843 210.632,529.176 211,538.5C 210.581,534.608 209.748,530.942 208.5,527.5C 208.5,526.833 208.5,526.167 208.5,525.5C 207.202,504.165 207.202,482.832 208.5,461.5 Z"/></g>
<g><path style="opacity:0.004" fill="#d89845" d="M 611.5,487.5 C 612.833,488.167 612.833,488.167 611.5,487.5 Z"/></g>
<g><path style="opacity:0.008" fill="#546a76" d="M 542.5,489.5 C 543.833,490.167 543.833,490.167 542.5,489.5 Z"/></g>
<g><path style="opacity:0.012" fill="#d89b46" d="M 607.5,490.5 C 608.833,491.167 608.833,491.167 607.5,490.5 Z"/></g>
<g><path style="opacity:0.004" fill="#556a76" d="M 535.5,493.5 C 536.833,494.167 536.833,494.167 535.5,493.5 Z"/></g>
<g><path style="opacity:0.012" fill="#4d6373" d="M 532.5,494.5 C 533.833,495.167 533.833,495.167 532.5,494.5 Z"/></g>
<g><path style="opacity:0.004" fill="#546978" d="M 535.5,494.5 C 534.833,495.167 534.833,495.167 535.5,494.5 Z"/></g>
<g><path style="opacity:0.008" fill="#115085" d="M 204.5,496.5 C 205.833,497.167 205.833,497.167 204.5,496.5 Z"/></g>
<g><path style="opacity:0.008" fill="#566974" d="M 526.5,497.5 C 527.833,498.167 527.833,498.167 526.5,497.5 Z"/></g>
<g><path style="opacity:0.004" fill="#125083" d="M 204.5,499.5 C 205.833,500.167 205.833,500.167 204.5,499.5 Z"/></g>
<g><path style="opacity:0.004" fill="#5d6c70" d="M 525.5,499.5 C 526.833,500.167 526.833,500.167 525.5,499.5 Z"/></g>
<g><path style="opacity:0.008" fill="#576873" d="M 520.5,500.5 C 521.833,501.167 521.833,501.167 520.5,500.5 Z"/></g>
<g><path style="opacity:0.004" fill="#db963c" d="M 585.5,504.5 C 584.761,504.631 584.094,504.464 583.5,504C 584.437,503.308 585.103,503.475 585.5,504.5 Z"/></g>
<g><path style="opacity:0.008" fill="#d9963f" d="M 578.5,507.5 C 577.761,507.631 577.094,507.464 576.5,507C 577.437,506.308 578.103,506.475 578.5,507.5 Z"/></g>
<g><path style="opacity:0.012" fill="#556872" d="M 500.5,509.5 C 501.043,509.56 501.376,509.893 501.5,510.5C 500.635,511.583 499.635,511.749 498.5,511C 499.416,510.722 500.082,510.222 500.5,509.5 Z"/></g>
<g><path style="opacity:0.004" fill="#d8933d" d="M 566.5,512.5 C 565.761,512.631 565.094,512.464 564.5,512C 565.437,511.308 566.103,511.475 566.5,512.5 Z"/></g>
<g><path style="opacity:0.004" fill="#606f71" d="M 484.5,517.5 C 485.833,518.167 485.833,518.167 484.5,517.5 Z"/></g>
<g><path style="opacity:0.006" fill="#59676d" d="M 477.5,518.5 C 478.239,518.369 478.906,518.536 479.5,519C 478.563,519.692 477.897,519.525 477.5,518.5 Z"/></g>
<g><path style="opacity:0.016" fill="#d99842" d="M 546.5,520.5 C 545.448,520.649 544.448,520.483 543.5,520C 544.749,519.26 545.749,519.427 546.5,520.5 Z"/></g>
<g><path style="opacity:0.008" fill="#d4943f" d="M 538.5,523.5 C 537.833,522.167 537.833,522.167 538.5,523.5 Z"/></g>
<g><path style="opacity:0.008" fill="#5c6e70" d="M 465.5,523.5 C 466.833,524.167 466.833,524.167 465.5,523.5 Z"/></g>
<g><path style="opacity:0.004" fill="#5c6d71" d="M 461.5,525.5 C 462.833,526.167 462.833,526.167 461.5,525.5 Z"/></g>
<g><path style="opacity:0.004" fill="#777869" d="M 475.5,525.5 C 476.833,526.167 476.833,526.167 475.5,525.5 Z"/></g>
<g><path style="opacity:0.008" fill="#d89642" d="M 526.5,528.5 C 525.761,528.631 525.094,528.464 524.5,528C 525.437,527.308 526.103,527.475 526.5,528.5 Z"/></g>
<g><path style="opacity:0.627" fill="#f5ad53" d="M 808.5,514.5 C 808.602,522.772 807.602,530.772 805.5,538.5C 806.148,530.317 807.148,522.317 808.5,514.5 Z"/></g>
<g><path style="opacity:1" fill="#fa8f10" d="M 808.5,514.5 C 807.148,522.317 806.148,530.317 805.5,538.5C 804.71,539.609 804.21,540.942 804,542.5C 803.833,541 803.667,539.5 803.5,538C 805.768,523.592 807.268,509.092 808,494.5C 808.5,501.158 808.666,507.825 808.5,514.5 Z"/></g>
<g><path style="opacity:0.004" fill="#d39543" d="M 518.5,529.5 C 519.833,530.167 519.833,530.167 518.5,529.5 Z"/></g>
<g><path style="opacity:0.004" fill="#d7963f" d="M 521.5,530.5 C 520.833,529.167 520.833,529.167 521.5,530.5 Z"/></g>
<g><path style="opacity:0.008" fill="#516872" d="M 438.5,534.5 C 439.833,535.167 439.833,535.167 438.5,534.5 Z"/></g>
<g><path style="opacity:0.008" fill="#d89844" d="M 506.5,535.5 C 507.833,536.167 507.833,536.167 506.5,535.5 Z"/></g>
<g><path style="opacity:0.004" fill="#155384" d="M 207.5,537.5 C 208.833,538.167 208.833,538.167 207.5,537.5 Z"/></g>
<g><path style="opacity:0.004" fill="#ec972d" d="M 806.5,539.5 C 807.833,540.167 807.833,540.167 806.5,539.5 Z"/></g>
<g><path style="opacity:0.012" fill="#506874" d="M 425.5,540.5 C 426.833,541.167 426.833,541.167 425.5,540.5 Z"/></g>
<g><path style="opacity:0.016" fill="#5b6d73" d="M 430.5,540.5 C 431.833,541.167 431.833,541.167 430.5,540.5 Z"/></g>
<g><path style="opacity:0.014" fill="#ec962f" d="M 806.5,541.5 C 807.525,541.897 807.692,542.563 807,543.5C 806.536,542.906 806.369,542.239 806.5,541.5 Z"/></g>
<g><path style="opacity:0.008" fill="#125083" d="M 208.5,542.5 C 209.833,543.167 209.833,543.167 208.5,542.5 Z"/></g>
<g><path style="opacity:0.004" fill="#5e6c71" d="M 428.5,542.5 C 429.833,543.167 429.833,543.167 428.5,542.5 Z"/></g>
<g><path style="opacity:0.004" fill="#4b6674" d="M 414.5,545.5 C 415.833,546.167 415.833,546.167 414.5,545.5 Z"/></g>
<g><path style="opacity:0.004" fill="#145284" d="M 209.5,550.5 C 210.525,550.897 210.692,551.563 210,552.5C 209.536,551.906 209.369,551.239 209.5,550.5 Z"/></g>
<g><path style="opacity:0.004" fill="#4a6576" d="M 406.5,550.5 C 407.833,551.167 407.833,551.167 406.5,550.5 Z"/></g>
<g><path style="opacity:0.008" fill="#da963d" d="M 476.5,551.5 C 477.833,552.167 477.833,552.167 476.5,551.5 Z"/></g>
<g><path style="opacity:0.008" fill="#db973f" d="M 473.5,553.5 C 474.833,554.167 474.833,554.167 473.5,553.5 Z"/></g>
<g><path style="opacity:0.004" fill="#135383" d="M 210.5,555.5 C 211.833,556.167 211.833,556.167 210.5,555.5 Z"/></g>
<g><path style="opacity:0.004" fill="#4a6574" d="M 398.5,555.5 C 399.833,556.167 399.833,556.167 398.5,555.5 Z"/></g>
<g><path style="opacity:0.004" fill="#ed972d" d="M 803.5,556.5 C 804.833,557.167 804.833,557.167 803.5,556.5 Z"/></g>
<g><path style="opacity:1" fill="#032d5c" d="M 214.5,561.5 C 213.995,558.159 213.828,554.826 214,551.5C 215.785,557.084 216.785,562.751 217,568.5C 216.302,565.996 215.469,563.663 214.5,561.5 Z"/></g>
<g><path style="opacity:0.008" fill="#4b6676" d="M 397.5,557.5 C 398.833,558.167 398.833,558.167 397.5,557.5 Z"/></g>
<g><path style="opacity:0.012" fill="#105082" d="M 212.5,557.5 C 212.631,558.239 212.464,558.906 212,559.5C 211.308,558.563 211.475,557.897 212.5,557.5 Z"/></g>
<g><path style="opacity:0.008" fill="#dc983f" d="M 465.5,560.5 C 464.761,560.631 464.094,560.464 463.5,560C 464.437,559.308 465.103,559.475 465.5,560.5 Z"/></g>
<g><path style="opacity:0.008" fill="#3c617c" d="M 385.5,564.5 C 386.167,564.5 386.5,564.833 386.5,565.5C 386.167,565.167 385.833,564.833 385.5,564.5 Z"/></g>
<g><path style="opacity:0.004" fill="#43647b" d="M 386.5,565.5 C 387.833,566.167 387.833,566.167 386.5,565.5 Z"/></g>
<g><path style="opacity:0.004" fill="#d69643" d="M 447.5,567.5 C 448.833,568.167 448.833,568.167 447.5,567.5 Z"/></g>
<g><path style="opacity:0.388" fill="#f3ad52" d="M 800.5,562.5 C 800.706,565.495 800.04,568.162 798.5,570.5C 798.565,567.572 799.232,564.905 800.5,562.5 Z"/></g>
<g><path style="opacity:0.004" fill="#41637b" d="M 379.5,569.5 C 380.833,570.167 380.833,570.167 379.5,569.5 Z"/></g>
<g><path style="opacity:0.004" fill="#4a687a" d="M 382.5,572.5 C 383.833,573.167 383.833,573.167 382.5,572.5 Z"/></g>
<g><path style="opacity:0.004" fill="#4a677a" d="M 380.5,575.5 C 380.897,574.475 381.563,574.308 382.5,575C 381.906,575.464 381.239,575.631 380.5,575.5 Z"/></g>
<g><path style="opacity:0.012" fill="#e9932d" d="M 798.5,574.5 C 799.833,575.167 799.833,575.167 798.5,574.5 Z"/></g>
<g><path style="opacity:0.004" fill="#de9940" d="M 442.5,577.5 C 440.972,577.483 440.472,576.816 441,575.5C 441.717,576.044 442.217,576.711 442.5,577.5 Z"/></g>
<g><path style="opacity:0.004" fill="#145283" d="M 215.5,578.5 C 216.833,579.167 216.833,579.167 215.5,578.5 Z"/></g>
<g><path style="opacity:0.004" fill="#145483" d="M 216.5,580.5 C 217.833,581.167 217.833,581.167 216.5,580.5 Z"/></g>
<g><path style="opacity:0.004" fill="#e09a3d" d="M 436.5,582.5 C 435.833,581.167 435.833,581.167 436.5,582.5 Z"/></g>
<g><path style="opacity:0.012" fill="#145285" d="M 217.5,582.5 C 218.833,583.167 218.833,583.167 217.5,582.5 Z"/></g>
<g><path style="opacity:0.012" fill="#dc993f" d="M 431.5,583.5 C 432.833,584.167 432.833,584.167 431.5,583.5 Z"/></g>
<g><path style="opacity:0.004" fill="#135283" d="M 215.5,584.5 C 216.833,585.167 216.833,585.167 215.5,584.5 Z"/></g>
<g><path style="opacity:0.004" fill="#3d617d" d="M 364.5,584.5 C 365.833,585.167 365.833,585.167 364.5,584.5 Z"/></g>
<g><path style="opacity:0.004" fill="#165183" d="M 215.5,588.5 C 216.833,589.167 216.833,589.167 215.5,588.5 Z"/></g>
<g><path style="opacity:0.004" fill="#de993e" d="M 423.5,591.5 C 424.833,592.167 424.833,592.167 423.5,591.5 Z"/></g>
<g><path style="opacity:0.024" fill="#f5ad50" d="M 568.5,592.5 C 574.417,592.216 580.084,592.883 585.5,594.5C 583.167,594.5 580.833,594.5 578.5,594.5C 575.167,593.833 571.833,593.167 568.5,592.5 Z"/></g>
<g><path style="opacity:0.004" fill="#f59d2e" d="M 578.5,594.5 C 578.103,595.525 577.437,595.692 576.5,595C 577.094,594.536 577.761,594.369 578.5,594.5 Z"/></g>
<g><path style="opacity:0.004" fill="#396180" d="M 355.5,596.5 C 356.833,597.167 356.833,597.167 355.5,596.5 Z"/></g>
<g><path style="opacity:0.008" fill="#f69f31" d="M 585.5,596.5 C 586.833,597.167 586.833,597.167 585.5,596.5 Z"/></g>
<g><path style="opacity:0.167" fill="#f7b155" d="M 529.5,596.5 C 528.5,597.167 527.5,597.833 526.5,598.5C 525.167,598.5 523.833,598.5 522.5,598.5C 524.515,597.076 526.848,596.41 529.5,596.5 Z"/></g>
<g><path style="opacity:0.012" fill="#f79e31" d="M 530.5,598.5 C 531.251,597.427 532.251,597.26 533.5,598C 532.552,598.483 531.552,598.649 530.5,598.5 Z"/></g>
<g><path style="opacity:0.008" fill="#f79d2f" d="M 587.5,597.5 C 588.833,598.167 588.833,598.167 587.5,597.5 Z"/></g>
<g><path style="opacity:0.004" fill="#f59f2a" d="M 592.5,597.5 C 591.833,598.167 591.833,598.167 592.5,597.5 Z"/></g>
<g><path style="opacity:0.012" fill="#3f6480" d="M 356.5,598.5 C 357.833,599.167 357.833,599.167 356.5,598.5 Z"/></g>
<g><path style="opacity:0.008" fill="#f39c30" d="M 526.5,598.5 C 527.833,599.167 527.833,599.167 526.5,598.5 Z"/></g>
<g><path style="opacity:0.004" fill="#e8912d" d="M 790.5,598.5 C 791.833,599.167 791.833,599.167 790.5,598.5 Z"/></g>
<g><path style="opacity:0.004" fill="#dd9b3f" d="M 416.5,600.5 C 415.833,599.167 415.833,599.167 416.5,600.5 Z"/></g>
<g><path style="opacity:0.004" fill="#e19e41" d="M 417.5,599.5 C 418.833,600.167 418.833,600.167 417.5,599.5 Z"/></g>
<g><path style="opacity:0.004" fill="#e1993f" d="M 416.5,600.5 C 416.833,600.5 417.167,600.5 417.5,600.5C 417.5,601.167 417.5,601.833 417.5,602.5C 416.662,602.158 416.328,601.492 416.5,600.5 Z"/></g>
<g><path style="opacity:0.004" fill="#335f82" d="M 350.5,604.5 C 351.833,605.167 351.833,605.167 350.5,604.5 Z"/></g>
<g><path style="opacity:0.004" fill="#f49f2f" d="M 511.5,606.5 C 512.833,607.167 512.833,607.167 511.5,606.5 Z"/></g>
<g><path style="opacity:0.004" fill="#3a6380" d="M 349.5,609.5 C 350.833,610.167 350.833,610.167 349.5,609.5 Z"/></g>
<g><path style="opacity:0.008" fill="#f59e32" d="M 616.5,609.5 C 617.167,609.5 617.5,609.833 617.5,610.5C 617.44,611.043 617.107,611.376 616.5,611.5C 615.227,610.743 615.227,610.077 616.5,609.5 Z"/></g>
<g><path style="opacity:0.008" fill="#366182" d="M 346.5,612.5 C 347.833,613.167 347.833,613.167 346.5,612.5 Z"/></g>
<g><path style="opacity:0.004" fill="#f49e32" d="M 616.5,612.5 C 617.833,613.167 617.833,613.167 616.5,612.5 Z"/></g>
<g><path style="opacity:0.004" fill="#f4a032" d="M 615.5,614.5 C 616.833,615.167 616.833,615.167 615.5,614.5 Z"/></g>
<g><path style="opacity:0.012" fill="#145082" d="M 231.5,618.5 C 232.833,619.167 232.833,619.167 231.5,618.5 Z"/></g>
<g><path style="opacity:0.004" fill="#d89744" d="M 399.5,618.5 C 400.833,619.167 400.833,619.167 399.5,618.5 Z"/></g>
<g><path style="opacity:0.008" fill="#f59e33" d="M 623.5,618.5 C 624.833,619.167 624.833,619.167 623.5,618.5 Z"/></g>
<g><path style="opacity:0.012" fill="#e1993c" d="M 399.5,624.5 C 400.833,625.167 400.833,625.167 399.5,624.5 Z"/></g>
<g><path style="opacity:0.004" fill="#376281" d="M 341.5,625.5 C 342.833,626.167 342.833,626.167 341.5,625.5 Z"/></g>
<g><path style="opacity:0.004" fill="#f69f32" d="M 628.5,627.5 C 629.833,628.167 629.833,628.167 628.5,627.5 Z"/></g>
<g><path style="opacity:0.075" fill="#416f92" d="M 339.5,626.5 C 338.943,631.052 337.943,635.385 336.5,639.5C 336.425,634.808 337.425,630.474 339.5,626.5 Z"/></g>
<g><path style="opacity:0.008" fill="#386382" d="M 340.5,630.5 C 341.833,631.167 341.833,631.167 340.5,630.5 Z"/></g>
<g><path style="opacity:0.004" fill="#135081" d="M 239.5,634.5 C 240.833,635.167 240.833,635.167 239.5,634.5 Z"/></g>
<g><path style="opacity:0.996" fill="#0f3d6d" d="M 339.5,626.5 C 337.425,630.474 336.425,634.808 336.5,639.5C 334.966,645.084 334.299,650.917 334.5,657C 334.501,661.347 334.834,665.514 335.5,669.5C 336.473,671.948 336.806,674.615 336.5,677.5C 336.5,679.167 336.5,680.833 336.5,682.5C 335.037,679.797 334.204,676.797 334,673.5C 333.333,663.5 333.333,653.5 334,643.5C 334.661,636.843 336.328,630.51 339,624.5C 339.464,625.094 339.631,625.761 339.5,626.5 Z"/></g>
<g><path style="opacity:0.008" fill="#f09c36" d="M 454.5,638.5 C 455.833,639.167 455.833,639.167 454.5,638.5 Z"/></g>
<g><path style="opacity:0.004" fill="#f59d33" d="M 632.5,640.5 C 631.833,641.167 631.833,641.167 632.5,640.5 Z"/></g>
<g><path style="opacity:0.008" fill="#e39a3e" d="M 391.5,640.5 C 392.525,640.897 392.692,641.563 392,642.5C 391.536,641.906 391.369,641.239 391.5,640.5 Z"/></g>
<g><path style="opacity:0.775" fill="#f9a945" d="M 632.5,633.5 C 634.006,636.356 634.672,639.523 634.5,643C 634.514,647.411 633.847,651.578 632.5,655.5C 631.643,646.932 631.643,641.932 632.5,640.5C 632.5,638.167 632.5,635.833 632.5,633.5 Z"/></g>
<g><path style="opacity:0.012" fill="#ef9b32" d="M 446.5,645.5 C 447.525,645.897 447.692,646.563 447,647.5C 446.536,646.906 446.369,646.239 446.5,645.5 Z"/></g>
<g><path style="opacity:0.012" fill="#145182" d="M 247.5,648.5 C 248.833,649.167 248.833,649.167 247.5,648.5 Z"/></g>
<g><path style="opacity:0.004" fill="#f39f2e" d="M 443.5,651.5 C 444.833,652.167 444.833,652.167 443.5,651.5 Z"/></g>
<g><path style="opacity:0.004" fill="#155382" d="M 248.5,652.5 C 249.833,653.167 249.833,653.167 248.5,652.5 Z"/></g>
<g><path style="opacity:0.031" fill="#ef9b34" d="M 438.5,654.5 C 439.833,655.167 439.833,655.167 438.5,654.5 Z"/></g>
<g><path style="opacity:0.416" fill="#3d739c" d="M 336.5,639.5 C 335.704,649.479 335.371,659.479 335.5,669.5C 334.834,665.514 334.501,661.347 334.5,657C 334.299,650.917 334.966,645.084 336.5,639.5 Z"/></g>
<g><path style="opacity:0.004" fill="#d99843" d="M 383.5,656.5 C 384.833,657.167 384.833,657.167 383.5,656.5 Z"/></g>
<g><path style="opacity:0.004" fill="#e09a3f" d="M 386.5,656.5 C 387.525,656.897 387.692,657.563 387,658.5C 386.536,657.906 386.369,657.239 386.5,656.5 Z"/></g>
<g><path style="opacity:0.006" fill="#de9940" d="M 385.5,662.5 C 386.525,662.897 386.692,663.563 386,664.5C 385.536,663.906 385.369,663.239 385.5,662.5 Z"/></g>
<g><path style="opacity:0.008" fill="#e8972e" d="M 756.5,665.5 C 757.833,666.167 757.833,666.167 756.5,665.5 Z"/></g>
<g><path style="opacity:0.004" fill="#e09b40" d="M 384.5,665.5 C 385.525,665.897 385.692,666.563 385,667.5C 384.536,666.906 384.369,666.239 384.5,665.5 Z"/></g>
<g><path style="opacity:0.004" fill="#f29b2c" d="M 428.5,666.5 C 429.833,667.167 429.833,667.167 428.5,666.5 Z"/></g>
<g><path style="opacity:0.008" fill="#e09a3f" d="M 384.5,668.5 C 385.833,669.167 385.833,669.167 384.5,668.5 Z"/></g>
<g><path style="opacity:0.004" fill="#ee9c31" d="M 430.5,668.5 C 431.833,669.167 431.833,669.167 430.5,668.5 Z"/></g>
<g><path style="opacity:0.004" fill="#f19c33" d="M 429.5,670.5 C 430.833,671.167 430.833,671.167 429.5,670.5 Z"/></g>
<g><path style="opacity:0.004" fill="#3b627d" d="M 337.5,672.5 C 338.833,673.167 338.833,673.167 337.5,672.5 Z"/></g>
<g><path style="opacity:0.008" fill="#f69e30" d="M 626.5,673.5 C 625.833,672.167 625.833,672.167 626.5,673.5 Z"/></g>
<g><path style="opacity:0.008" fill="#e49228" d="M 749.5,672.5 C 750.833,673.167 750.833,673.167 749.5,672.5 Z"/></g>
<g><path style="opacity:0.006" fill="#f69e34" d="M 623.5,673.5 C 624.525,673.897 624.692,674.563 624,675.5C 623.536,674.906 623.369,674.239 623.5,673.5 Z"/></g>
<g><path style="opacity:0.004" fill="#165381" d="M 263.5,674.5 C 264.833,675.167 264.833,675.167 263.5,674.5 Z"/></g>
<g><path style="opacity:0.004" fill="#dc9740" d="M 383.5,674.5 C 384.833,675.167 384.833,675.167 383.5,674.5 Z"/></g>
<g><path style="opacity:0.008" fill="#ed9c32" d="M 422.5,676.5 C 423.833,677.167 423.833,677.167 422.5,676.5 Z"/></g>
<g><path style="opacity:0.006" fill="#155282" d="M 266.5,678.5 C 266.897,677.475 267.563,677.308 268.5,678C 267.906,678.464 267.239,678.631 266.5,678.5 Z"/></g>
<g><path style="opacity:0.012" fill="#135382" d="M 270.5,678.5 C 269.833,679.167 269.833,679.167 270.5,678.5 Z"/></g>
<g><path style="opacity:0.004" fill="#476779" d="M 341.5,678.5 C 342.833,679.167 342.833,679.167 341.5,678.5 Z"/></g>
<g><path style="opacity:0.008" fill="#e7962a" d="M 742.5,681.5 C 743.833,682.167 743.833,682.167 742.5,681.5 Z"/></g>
<g><path style="opacity:0.231" fill="#47708f" d="M 336.5,677.5 C 337.768,679.905 338.435,682.572 338.5,685.5C 337.833,684.5 337.167,683.5 336.5,682.5C 336.5,680.833 336.5,679.167 336.5,677.5 Z"/></g>
<g><path style="opacity:0.017" fill="#d79541" d="M 383.5,678.5 C 384.65,683.316 384.816,688.316 384,693.5C 383.501,688.511 383.334,683.511 383.5,678.5 Z"/></g>
<g><path style="opacity:0.004" fill="#f59f2f" d="M 619.5,688.5 C 618.833,687.167 618.833,687.167 619.5,688.5 Z"/></g>
<g><path style="opacity:0.008" fill="#3d607c" d="M 341.5,690.5 C 342.833,691.167 342.833,691.167 341.5,690.5 Z"/></g>
<g><path style="opacity:0.004" fill="#f39f33" d="M 615.5,690.5 C 616.833,691.167 616.833,691.167 615.5,690.5 Z"/></g>
<g><path style="opacity:0.004" fill="#155383" d="M 280.5,691.5 C 281.833,692.167 281.833,692.167 280.5,691.5 Z"/></g>
<g><path style="opacity:0.008" fill="#e6962e" d="M 734.5,691.5 C 735.833,692.167 735.833,692.167 734.5,691.5 Z"/></g>
<g><path style="opacity:0.004" fill="#3e607b" d="M 342.5,693.5 C 343.833,694.167 343.833,694.167 342.5,693.5 Z"/></g>
<g><path style="opacity:0.004" fill="#d49643" d="M 383.5,694.5 C 384.833,695.167 384.833,695.167 383.5,694.5 Z"/></g>
<g><path style="opacity:0.004" fill="#d29442" d="M 383.5,696.5 C 384.833,697.167 384.833,697.167 383.5,696.5 Z"/></g>
<g><path style="opacity:0.992" fill="#f79a2b" d="M 388.5,711.5 C 388.073,708.99 387.407,706.657 386.5,704.5C 386.02,698.014 385.687,691.514 385.5,685C 385.353,678.269 386.02,671.769 387.5,665.5C 388.384,662.977 389.218,660.31 390,657.5C 390.167,658.167 390.333,658.833 390.5,659.5C 387.865,676.003 387.865,692.503 390.5,709C 390.316,710.376 389.649,711.209 388.5,711.5 Z"/></g>
<g><path style="opacity:0.006" fill="#d29445" d="M 384.5,699.5 C 385.573,700.251 385.74,701.251 385,702.5C 384.517,701.552 384.351,700.552 384.5,699.5 Z"/></g>
<g><path style="opacity:0.012" fill="#f49d2c" d="M 611.5,699.5 C 612.833,700.167 612.833,700.167 611.5,699.5 Z"/></g>
<g><path style="opacity:0.008" fill="#154f7f" d="M 291.5,701.5 C 290.833,702.167 290.833,702.167 291.5,701.5 Z"/></g>
<g><path style="opacity:0.008" fill="#cf9040" d="M 386.5,704.5 C 385.833,705.167 385.833,705.167 386.5,704.5 Z"/></g>
<g><path style="opacity:0.009" fill="#e3983b" d="M 406.5,707.5 C 407.833,708.5 407.833,709.5 406.5,710.5C 406.5,709.5 406.5,708.5 406.5,707.5 Z"/></g>
<g><path style="opacity:0.008" fill="#16507d" d="M 298.5,709.5 C 299.833,710.167 299.833,710.167 298.5,709.5 Z"/></g>
<g><path style="opacity:0.004" fill="#154f7f" d="M 295.5,710.5 C 296.833,711.167 296.833,711.167 295.5,710.5 Z"/></g>
<g><path style="opacity:0.004" fill="#c78f44" d="M 386.5,710.5 C 387.833,711.167 387.833,711.167 386.5,710.5 Z"/></g>
<g><path style="opacity:0.01" fill="#3f627c" d="M 349.5,712.5 C 350.302,711.115 350.969,711.282 351.5,713C 351.43,713.765 351.097,714.265 350.5,714.5C 350.672,713.508 350.338,712.842 349.5,712.5 Z"/></g>
<g><path style="opacity:0.012" fill="#e39939" d="M 405.5,710.5 C 405.833,710.5 406.167,710.5 406.5,710.5C 406.167,713.167 405.833,713.167 405.5,710.5 Z"/></g>
<g><path style="opacity:0.004" fill="#c79146" d="M 387.5,715.5 C 388.833,716.167 388.833,716.167 387.5,715.5 Z"/></g>
<g><path style="opacity:0.004" fill="#f09f32" d="M 601.5,716.5 C 600.833,715.167 600.833,715.167 601.5,716.5 Z"/></g>
<g><path style="opacity:0.004" fill="#175281" d="M 307.5,716.5 C 306.833,717.167 306.833,717.167 307.5,716.5 Z"/></g>
<g><path style="opacity:0.008" fill="#dc983f" d="M 403.5,717.5 C 404.833,718.167 404.833,718.167 403.5,717.5 Z"/></g>
<g><path style="opacity:0.004" fill="#4b6776" d="M 357.5,720.5 C 358.833,721.167 358.833,721.167 357.5,720.5 Z"/></g>
<g><path style="opacity:0.004" fill="#e5942d" d="M 702.5,724.5 C 703.833,725.167 703.833,725.167 702.5,724.5 Z"/></g>
<g><path style="opacity:0.012" fill="#3e617b" d="M 358.5,727.5 C 359.833,728.167 359.833,728.167 358.5,727.5 Z"/></g>
<g><path style="opacity:0.008" fill="#b48a4c" d="M 392.5,727.5 C 392.631,728.239 392.464,728.906 392,729.5C 391.308,728.563 391.475,727.897 392.5,727.5 Z"/></g>
<g><path style="opacity:0.016" fill="#ae884f" d="M 393.5,732.5 C 392.475,732.103 392.308,731.437 393,730.5C 393.464,731.094 393.631,731.761 393.5,732.5 Z"/></g>
<g><path style="opacity:0.012" fill="#ab864b" d="M 393.5,732.5 C 393.833,732.5 394.167,732.5 394.5,732.5C 394.631,733.376 394.298,734.043 393.5,734.5C 392.537,734.03 392.537,733.363 393.5,732.5 Z"/></g>
<g><path style="opacity:0.004" fill="#ea952a" d="M 687.5,734.5 C 688.833,735.167 688.833,735.167 687.5,734.5 Z"/></g>
<g><path style="opacity:0.004" fill="#476374" d="M 365.5,735.5 C 366.833,736.167 366.833,736.167 365.5,735.5 Z"/></g>
<g><path style="opacity:0.478" fill="#c9944f" d="M 396.5,735.5 C 397.167,735.5 397.833,735.5 398.5,735.5C 399.895,736.648 399.728,737.648 398,738.5C 396.961,737.756 396.461,736.756 396.5,735.5 Z"/></g>
<g><path style="opacity:0.008" fill="#1d527d" d="M 336.5,738.5 C 335.833,739.167 335.833,739.167 336.5,738.5 Z"/></g>
<g><path style="opacity:0.004" fill="#456373" d="M 366.5,738.5 C 367.833,739.167 367.833,739.167 366.5,738.5 Z"/></g>
<g><path style="opacity:0.012" fill="#f19e33" d="M 575.5,738.5 C 576.833,739.167 576.833,739.167 575.5,738.5 Z"/></g>
<g><path style="opacity:0.004" fill="#1e547f" d="M 338.5,741.5 C 337.833,740.167 337.833,740.167 338.5,741.5 Z"/></g>
<g><path style="opacity:0.004" fill="#e3942a" d="M 686.5,740.5 C 687.833,741.167 687.833,741.167 686.5,740.5 Z"/></g>
<g><path style="opacity:0.004" fill="#20537d" d="M 338.5,741.5 C 339.833,742.167 339.833,742.167 338.5,741.5 Z"/></g>
<g><path style="opacity:0.004" fill="#20537d" d="M 340.5,742.5 C 341.833,743.167 341.833,743.167 340.5,742.5 Z"/></g>
<g><path style="opacity:0.012" fill="#ec972d" d="M 676.5,742.5 C 677.833,743.167 677.833,743.167 676.5,742.5 Z"/></g>
<g><path style="opacity:0.004" fill="#4e6771" d="M 373.5,746.5 C 374.833,747.167 374.833,747.167 373.5,746.5 Z"/></g>
<g><path style="opacity:0.004" fill="#e7972a" d="M 670.5,746.5 C 671.833,747.167 671.833,747.167 670.5,746.5 Z"/></g>
<g><path style="opacity:0.004" fill="#24557b" d="M 349.5,747.5 C 348.833,748.167 348.833,748.167 349.5,747.5 Z"/></g>
<g><path style="opacity:0.004" fill="#25567a" d="M 351.5,748.5 C 351.5,748.833 351.5,749.167 351.5,749.5C 350.83,749.019 350.83,748.685 351.5,748.5 Z"/></g>
<g><path style="opacity:0.016" fill="#4e6670" d="M 374.5,748.5 C 375.833,749.167 375.833,749.167 374.5,748.5 Z"/></g>
<g><path style="opacity:0.004" fill="#e7962a" d="M 667.5,748.5 C 668.833,749.167 668.833,749.167 667.5,748.5 Z"/></g>
<g><path style="opacity:0.004" fill="#27587d" d="M 351.5,749.5 C 352.833,750.167 352.833,750.167 351.5,749.5 Z"/></g>
<g><path style="opacity:0.016" fill="#51626a" d="M 376.5,751.5 C 377.833,752.167 377.833,752.167 376.5,751.5 Z"/></g>
<g><path style="opacity:0.004" fill="#2c5678" d="M 360.5,753.5 C 360.5,753.833 360.5,754.167 360.5,754.5C 359.83,754.019 359.83,753.685 360.5,753.5 Z"/></g>
<g><path style="opacity:0.004" fill="#e8972d" d="M 662.5,753.5 C 663.833,754.167 663.833,754.167 662.5,753.5 Z"/></g>
<g><path style="opacity:0.008" fill="#2e5b7a" d="M 360.5,754.5 C 361.833,755.167 361.833,755.167 360.5,754.5 Z"/></g>
<g><path style="opacity:0.004" fill="#315a75" d="M 363.5,756.5 C 364.833,757.167 364.833,757.167 363.5,756.5 Z"/></g>
<g><path style="opacity:0.008" fill="#5c6a69" d="M 382.5,756.5 C 383.833,757.167 383.833,757.167 382.5,756.5 Z"/></g>
<g><path style="opacity:0.004" fill="#e9962c" d="M 654.5,756.5 C 655.833,757.167 655.833,757.167 654.5,756.5 Z"/></g>
<g><path style="opacity:0.004" fill="#335a75" d="M 364.5,758.5 C 365.833,759.167 365.833,759.167 364.5,758.5 Z"/></g>
<g><path style="opacity:0.008" fill="#ed9d33" d="M 546.5,759.5 C 547.833,760.167 547.833,760.167 546.5,759.5 Z"/></g>
<g><path style="opacity:0.004" fill="#e7982c" d="M 646.5,760.5 C 647.833,761.167 647.833,761.167 646.5,760.5 Z"/></g>
<g><path style="opacity:0.004" fill="#ec9a30" d="M 543.5,761.5 C 544.833,762.167 544.833,762.167 543.5,761.5 Z"/></g>
<g><path style="opacity:0.004" fill="#486069" d="M 378.5,764.5 C 379.833,765.167 379.833,765.167 378.5,764.5 Z"/></g>
<g><path style="opacity:0.005" fill="#4c5f66" d="M 380.5,765.5 C 383.001,765.511 383.168,766.178 381,767.5C 380.536,766.906 380.369,766.239 380.5,765.5 Z"/></g>
<g><path style="opacity:0.016" fill="#eb9729" d="M 622.5,771.5 C 623.833,772.167 623.833,772.167 622.5,771.5 Z"/></g>
<g><path style="opacity:0.004" fill="#e9972c" d="M 619.5,772.5 C 620.833,773.167 620.833,773.167 619.5,772.5 Z"/></g>
<g><path style="opacity:0.004" fill="#eb972b" d="M 619.5,773.5 C 618.833,774.167 618.833,774.167 619.5,773.5 Z"/></g>
<g><path style="opacity:0.006" fill="#e69933" d="M 519.5,776.5 C 520.077,775.227 520.743,775.227 521.5,776.5C 521.03,777.463 520.363,777.463 519.5,776.5 Z"/></g>
<g><path style="opacity:0.008" fill="#e7952e" d="M 524.5,776.5 C 523.761,776.631 523.094,776.464 522.5,776C 523.437,775.308 524.103,775.475 524.5,776.5 Z"/></g>
<g><path style="opacity:0.004" fill="#e29731" d="M 511.5,778.5 C 512.833,779.167 512.833,779.167 511.5,778.5 Z"/></g>
<g><path style="opacity:0.008" fill="#eb972c" d="M 598.5,781.5 C 598.897,780.475 599.563,780.308 600.5,781C 599.906,781.464 599.239,781.631 598.5,781.5 Z"/></g>
<g><path style="opacity:0.012" fill="#ec972d" d="M 594.5,782.5 C 595.251,781.427 596.251,781.26 597.5,782C 596.552,782.483 595.552,782.649 594.5,782.5 Z"/></g>
<g><path style="opacity:0.004" fill="#eb952c" d="M 590.5,782.5 C 591.239,782.369 591.906,782.536 592.5,783C 591.563,783.692 590.897,783.525 590.5,782.5 Z"/></g>
<g><path style="opacity:0.016" fill="#d78f35" d="M 506.5,784.5 C 505.448,784.649 504.448,784.483 503.5,784C 504.749,783.26 505.749,783.427 506.5,784.5 Z"/></g>
<g><path style="opacity:0.98" fill="#fa931b" d="M 546.5,790.5 C 543.375,791.479 540.042,791.813 536.5,791.5C 525.495,791.667 514.495,791.5 503.5,791C 519.206,790.585 534.873,789.918 550.5,789C 548.942,789.21 547.609,789.71 546.5,790.5 Z"/></g>
<g><path style="opacity:0.004" fill="#eb962e" d="M 567.5,788.5 C 568.833,789.167 568.833,789.167 567.5,788.5 Z"/></g>
<g><path style="opacity:0.006" fill="#ea962c" d="M 561.5,790.5 C 562.601,789.402 563.934,789.235 565.5,790C 564.207,790.49 562.873,790.657 561.5,790.5 Z"/></g>
<g><path style="opacity:0.004" fill="#ec952b" d="M 555.5,791.5 C 555.897,790.475 556.563,790.308 557.5,791C 556.906,791.464 556.239,791.631 555.5,791.5 Z"/></g>
<g><path style="opacity:0.004" fill="#e7932d" d="M 558.5,790.5 C 559.833,791.167 559.833,791.167 558.5,790.5 Z"/></g>
<g><path style="opacity:0.004" fill="#e59429" d="M 525.5,793.5 C 526.833,794.167 526.833,794.167 525.5,793.5 Z"/></g>
</svg>
